# Tiled2Unity generated file. Do not modify by hand.
# Wavefront file for 'Station_mesh_0004.obj'

# Vertices (Count = 120)
v -288 -320 0
v -304 -320 0
v -304 -304 0
v -288 -304 0
v -304 -320 0
v -320 -320 0
v -320 -304 0
v -304 -304 0
v -320 -320 0
v -336 -320 0
v -336 -304 0
v -320 -304 0
v -400 -320 0
v -416 -320 0
v -416 -304 0
v -400 -304 0
v -416 -320 0
v -432 -320 0
v -432 -304 0
v -416 -304 0
v -448 -320 0
v -464 -320 0
v -464 -304 0
v -448 -304 0
v -464 -320 0
v -480 -320 0
v -480 -304 0
v -464 -304 0
v -528 -320 0
v -544 -320 0
v -544 -304 0
v -528 -304 0
v -544 -320 0
v -560 -320 0
v -560 -304 0
v -544 -304 0
v -288 -336 0
v -304 -336 0
v -304 -320 0
v -288 -320 0
v -304 -336 0
v -320 -336 0
v -320 -320 0
v -304 -320 0
v -320 -336 0
v -336 -336 0
v -336 -320 0
v -320 -320 0
v -400 -336 0
v -416 -336 0
v -416 -320 0
v -400 -320 0
v -416 -336 0
v -432 -336 0
v -432 -320 0
v -416 -320 0
v -448 -336 0
v -464 -336 0
v -464 -320 0
v -448 -320 0
v -464 -336 0
v -480 -336 0
v -480 -320 0
v -464 -320 0
v -528 -336 0
v -544 -336 0
v -544 -320 0
v -528 -320 0
v -544 -336 0
v -560 -336 0
v -560 -320 0
v -544 -320 0
v -288 -352 0
v -304 -352 0
v -304 -336 0
v -288 -336 0
v -304 -352 0
v -320 -352 0
v -320 -336 0
v -304 -336 0
v -448 -352 0
v -464 -352 0
v -464 -336 0
v -448 -336 0
v -464 -352 0
v -480 -352 0
v -480 -336 0
v -464 -336 0
v -528 -352 0
v -544 -352 0
v -544 -336 0
v -528 -336 0
v -544 -352 0
v -560 -352 0
v -560 -336 0
v -544 -336 0
v -288 -368 0
v -304 -368 0
v -304 -352 0
v -288 -352 0
v -304 -368 0
v -320 -368 0
v -320 -352 0
v -304 -352 0
v -448 -368 0
v -464 -368 0
v -464 -352 0
v -448 -352 0
v -464 -368 0
v -480 -368 0
v -480 -352 0
v -464 -352 0
v -528 -368 0
v -544 -368 0
v -544 -352 0
v -528 -352 0
v -544 -368 0
v -560 -368 0
v -560 -352 0
v -544 -352 0

# Texture cooridinates (Count = 48)
vt 0.59375 0.452381
vt 0.609375 0.452381
vt 0.609375 0.4603174
vt 0.59375 0.4603174
vt 0.625 0.452381
vt 0.625 0.4603174
vt 0.015625 0.5634921
vt 0.03125 0.5634921
vt 0.03125 0.5714285
vt 0.015625 0.5714285
vt 0 0.5634921
vt 0 0.5714285
vt 0.53125 0.452381
vt 0.546875 0.452381
vt 0.546875 0.4603174
vt 0.53125 0.4603174
vt 0.5625 0.452381
vt 0.5625 0.4603174
vt 0.59375 0.4444444
vt 0.609375 0.4444444
vt 0.625 0.4444444
vt 0.015625 0.5555556
vt 0.03125 0.5555556
vt 0 0.5555556
vt 0.53125 0.4444444
vt 0.546875 0.4444444
vt 0.5625 0.4444444
vt 0.59375 0.4365079
vt 0.609375 0.4365079
vt 0.625 0.4365079
vt 0.53125 0.4365079
vt 0.546875 0.4365079
vt 0.5625 0.4365079
vt 0.65625 0.4047619
vt 0.671875 0.4047619
vt 0.671875 0.4126984
vt 0.65625 0.4126984
vt 0.6875 0.4047619
vt 0.6875 0.4126984
vt 0.59375 0.4285714
vt 0.609375 0.4285714
vt 0.625 0.4285714
vt 0.53125 0.4285714
vt 0.546875 0.4285714
vt 0.5625 0.4285714
vt 0.65625 0.3968254
vt 0.671875 0.3968254
vt 0.6875 0.3968254

# Normal
vn 0 0 -1

# Mesh description
g Station_mesh_0004

# Faces
f 1/1/1 2/2/1 3/3/1 4/4/1
f 5/2/1 6/5/1 7/6/1 8/3/1
f 9/7/1 10/8/1 11/9/1 12/10/1
f 13/11/1 14/7/1 15/10/1 16/12/1
f 17/7/1 18/8/1 19/9/1 20/10/1
f 21/13/1 22/14/1 23/15/1 24/16/1
f 25/14/1 26/17/1 27/18/1 28/15/1
f 29/11/1 30/7/1 31/10/1 32/12/1
f 33/7/1 34/8/1 35/9/1 36/10/1
f 37/19/1 38/20/1 39/2/1 40/1/1
f 41/20/1 42/21/1 43/5/1 44/2/1
f 45/22/1 46/23/1 47/8/1 48/7/1
f 49/24/1 50/22/1 51/7/1 52/11/1
f 53/22/1 54/23/1 55/8/1 56/7/1
f 57/25/1 58/26/1 59/14/1 60/13/1
f 61/26/1 62/27/1 63/17/1 64/14/1
f 65/24/1 66/22/1 67/7/1 68/11/1
f 69/22/1 70/23/1 71/8/1 72/7/1
f 73/28/1 74/29/1 75/20/1 76/19/1
f 77/29/1 78/30/1 79/21/1 80/20/1
f 81/31/1 82/32/1 83/26/1 84/25/1
f 85/32/1 86/33/1 87/27/1 88/26/1
f 89/34/1 90/35/1 91/36/1 92/37/1
f 93/35/1 94/38/1 95/39/1 96/36/1
f 97/40/1 98/41/1 99/29/1 100/28/1
f 101/41/1 102/42/1 103/30/1 104/29/1
f 105/43/1 106/44/1 107/32/1 108/31/1
f 109/44/1 110/45/1 111/33/1 112/32/1
f 113/46/1 114/47/1 115/35/1 116/34/1
f 117/47/1 118/48/1 119/38/1 120/35/1

