# Tiled2Unity generated file. Do not modify by hand.
# Wavefront file for 'Station_mesh_0006.obj'

# Vertices (Count = 16)
v -288 -480 0
v -304 -480 0
v -304 -464 0
v -288 -464 0
v -304 -480 0
v -320 -480 0
v -320 -464 0
v -304 -464 0
v -288 -496 0
v -304 -496 0
v -304 -480 0
v -288 -480 0
v -304 -496 0
v -320 -496 0
v -320 -480 0
v -304 -480 0

# Texture cooridinates (Count = 9)
vt 0.65625 0.4047619
vt 0.671875 0.4047619
vt 0.671875 0.4126984
vt 0.65625 0.4126984
vt 0.6875 0.4047619
vt 0.6875 0.4126984
vt 0.65625 0.3968254
vt 0.671875 0.3968254
vt 0.6875 0.3968254

# Normal
vn 0 0 -1

# Mesh description
g Station_mesh_0006

# Faces
f 1/1/1 2/2/1 3/3/1 4/4/1
f 5/2/1 6/5/1 7/6/1 8/3/1
f 9/7/1 10/8/1 11/2/1 12/1/1
f 13/8/1 14/9/1 15/5/1 16/2/1

