# Tiled2Unity generated file. Do not modify by hand.
# Wavefront file for 'Station_mesh_0003.obj'

# Vertices (Count = 392)
v -272 -304 0
v -288 -304 0
v -288 -288 0
v -272 -288 0
v -288 -304 0
v -304 -304 0
v -304 -288 0
v -288 -288 0
v -304 -304 0
v -320 -304 0
v -320 -288 0
v -304 -288 0
v -320 -304 0
v -336 -304 0
v -336 -288 0
v -320 -288 0
v -336 -304 0
v -352 -304 0
v -352 -288 0
v -336 -288 0
v -352 -304 0
v -368 -304 0
v -368 -288 0
v -352 -288 0
v -368 -304 0
v -384 -304 0
v -384 -288 0
v -368 -288 0
v -384 -304 0
v -400 -304 0
v -400 -288 0
v -384 -288 0
v -400 -304 0
v -416 -304 0
v -416 -288 0
v -400 -288 0
v -416 -304 0
v -432 -304 0
v -432 -288 0
v -416 -288 0
v -432 -304 0
v -448 -304 0
v -448 -288 0
v -432 -288 0
v -448 -304 0
v -464 -304 0
v -464 -288 0
v -448 -288 0
v -464 -304 0
v -480 -304 0
v -480 -288 0
v -464 -288 0
v -480 -304 0
v -496 -304 0
v -496 -288 0
v -480 -288 0
v -496 -304 0
v -512 -304 0
v -512 -288 0
v -496 -288 0
v -512 -304 0
v -528 -304 0
v -528 -288 0
v -512 -288 0
v -528 -304 0
v -544 -304 0
v -544 -288 0
v -528 -288 0
v -544 -304 0
v -560 -304 0
v -560 -288 0
v -544 -288 0
v -272 -320 0
v -288 -320 0
v -288 -304 0
v -272 -304 0
v -288 -320 0
v -304 -320 0
v -304 -304 0
v -288 -304 0
v -304 -320 0
v -320 -320 0
v -320 -304 0
v -304 -304 0
v -320 -320 0
v -336 -320 0
v -336 -304 0
v -320 -304 0
v -336 -320 0
v -352 -320 0
v -352 -304 0
v -336 -304 0
v -352 -320 0
v -368 -320 0
v -368 -304 0
v -352 -304 0
v -368 -320 0
v -384 -320 0
v -384 -304 0
v -368 -304 0
v -384 -320 0
v -400 -320 0
v -400 -304 0
v -384 -304 0
v -400 -320 0
v -416 -320 0
v -416 -304 0
v -400 -304 0
v -416 -320 0
v -432 -320 0
v -432 -304 0
v -416 -304 0
v -432 -320 0
v -448 -320 0
v -448 -304 0
v -432 -304 0
v -448 -320 0
v -464 -320 0
v -464 -304 0
v -448 -304 0
v -464 -320 0
v -480 -320 0
v -480 -304 0
v -464 -304 0
v -480 -320 0
v -496 -320 0
v -496 -304 0
v -480 -304 0
v -496 -320 0
v -512 -320 0
v -512 -304 0
v -496 -304 0
v -512 -320 0
v -528 -320 0
v -528 -304 0
v -512 -304 0
v -528 -320 0
v -544 -320 0
v -544 -304 0
v -528 -304 0
v -544 -320 0
v -560 -320 0
v -560 -304 0
v -544 -304 0
v -272 -336 0
v -288 -336 0
v -288 -320 0
v -272 -320 0
v -288 -336 0
v -304 -336 0
v -304 -320 0
v -288 -320 0
v -304 -336 0
v -320 -336 0
v -320 -320 0
v -304 -320 0
v -320 -336 0
v -336 -336 0
v -336 -320 0
v -320 -320 0
v -336 -336 0
v -352 -336 0
v -352 -320 0
v -336 -320 0
v -352 -336 0
v -368 -336 0
v -368 -320 0
v -352 -320 0
v -368 -336 0
v -384 -336 0
v -384 -320 0
v -368 -320 0
v -384 -336 0
v -400 -336 0
v -400 -320 0
v -384 -320 0
v -400 -336 0
v -416 -336 0
v -416 -320 0
v -400 -320 0
v -416 -336 0
v -432 -336 0
v -432 -320 0
v -416 -320 0
v -432 -336 0
v -448 -336 0
v -448 -320 0
v -432 -320 0
v -448 -336 0
v -464 -336 0
v -464 -320 0
v -448 -320 0
v -464 -336 0
v -480 -336 0
v -480 -320 0
v -464 -320 0
v -480 -336 0
v -496 -336 0
v -496 -320 0
v -480 -320 0
v -496 -336 0
v -512 -336 0
v -512 -320 0
v -496 -320 0
v -512 -336 0
v -528 -336 0
v -528 -320 0
v -512 -320 0
v -528 -336 0
v -544 -336 0
v -544 -320 0
v -528 -320 0
v -544 -336 0
v -560 -336 0
v -560 -320 0
v -544 -320 0
v -272 -352 0
v -288 -352 0
v -288 -336 0
v -272 -336 0
v -288 -352 0
v -304 -352 0
v -304 -336 0
v -288 -336 0
v -304 -352 0
v -320 -352 0
v -320 -336 0
v -304 -336 0
v -320 -352 0
v -336 -352 0
v -336 -336 0
v -320 -336 0
v -336 -352 0
v -352 -352 0
v -352 -336 0
v -336 -336 0
v -352 -352 0
v -368 -352 0
v -368 -336 0
v -352 -336 0
v -368 -352 0
v -384 -352 0
v -384 -336 0
v -368 -336 0
v -384 -352 0
v -400 -352 0
v -400 -336 0
v -384 -336 0
v -400 -352 0
v -416 -352 0
v -416 -336 0
v -400 -336 0
v -416 -352 0
v -432 -352 0
v -432 -336 0
v -416 -336 0
v -432 -352 0
v -448 -352 0
v -448 -336 0
v -432 -336 0
v -448 -352 0
v -464 -352 0
v -464 -336 0
v -448 -336 0
v -464 -352 0
v -480 -352 0
v -480 -336 0
v -464 -336 0
v -480 -352 0
v -496 -352 0
v -496 -336 0
v -480 -336 0
v -496 -352 0
v -512 -352 0
v -512 -336 0
v -496 -336 0
v -512 -352 0
v -528 -352 0
v -528 -336 0
v -512 -336 0
v -528 -352 0
v -544 -352 0
v -544 -336 0
v -528 -336 0
v -544 -352 0
v -560 -352 0
v -560 -336 0
v -544 -336 0
v -336 -368 0
v -352 -368 0
v -352 -352 0
v -336 -352 0
v -352 -368 0
v -368 -368 0
v -368 -352 0
v -352 -352 0
v -368 -368 0
v -384 -368 0
v -384 -352 0
v -368 -352 0
v -384 -368 0
v -400 -368 0
v -400 -352 0
v -384 -352 0
v -400 -368 0
v -416 -368 0
v -416 -352 0
v -400 -352 0
v -416 -368 0
v -432 -368 0
v -432 -352 0
v -416 -352 0
v -288 -400 0
v -304 -400 0
v -304 -384 0
v -288 -384 0
v -304 -400 0
v -320 -400 0
v -320 -384 0
v -304 -384 0
v -320 -400 0
v -336 -400 0
v -336 -384 0
v -320 -384 0
v -336 -400 0
v -352 -400 0
v -352 -384 0
v -336 -384 0
v -288 -416 0
v -304 -416 0
v -304 -400 0
v -288 -400 0
v -304 -416 0
v -320 -416 0
v -320 -400 0
v -304 -400 0
v -320 -416 0
v -336 -416 0
v -336 -400 0
v -320 -400 0
v -336 -416 0
v -352 -416 0
v -352 -400 0
v -336 -400 0
v -288 -448 0
v -304 -448 0
v -304 -432 0
v -288 -432 0
v -304 -448 0
v -320 -448 0
v -320 -432 0
v -304 -432 0
v -320 -448 0
v -336 -448 0
v -336 -432 0
v -320 -432 0
v -336 -448 0
v -352 -448 0
v -352 -432 0
v -336 -432 0
v -288 -464 0
v -304 -464 0
v -304 -448 0
v -288 -448 0
v -304 -464 0
v -320 -464 0
v -320 -448 0
v -304 -448 0
v -320 -464 0
v -336 -464 0
v -336 -448 0
v -320 -448 0
v -336 -464 0
v -352 -464 0
v -352 -448 0
v -336 -448 0
v -416 -464 0
v -432 -464 0
v -432 -448 0
v -416 -448 0
v -432 -464 0
v -448 -464 0
v -448 -448 0
v -432 -448 0
v -416 -480 0
v -432 -480 0
v -432 -464 0
v -416 -464 0
v -432 -480 0
v -448 -480 0
v -448 -464 0
v -432 -464 0

# Texture cooridinates (Count = 94)
vt 0.09375 0.02380955
vt 0.109375 0.02380955
vt 0.109375 0.03174603
vt 0.09375 0.03174603
vt 0.125 0.02380955
vt 0.125 0.03174603
vt 0.28125 0.6825397
vt 0.296875 0.6825397
vt 0.296875 0.6904762
vt 0.28125 0.6904762
vt 0.5 0.3888889
vt 0.515625 0.3888889
vt 0.515625 0.3968254
vt 0.5 0.3968254
vt 0.53125 0.3888889
vt 0.53125 0.3968254
vt 0.3125 0.6825397
vt 0.3125 0.6904762
vt 0.09375 0.01587301
vt 0.109375 0.01587301
vt 0.125 0.01587301
vt 0.140625 0.7063492
vt 0.15625 0.7063492
vt 0.15625 0.7142857
vt 0.140625 0.7142857
vt 0.171875 0.7063492
vt 0.171875 0.7142857
vt 0.5 0.3809524
vt 0.515625 0.3809524
vt 0.53125 0.3809524
vt 0.09375 0.007936537
vt 0.109375 0.007936537
vt 0.125 0.007936537
vt 0.140625 0.6984127
vt 0.15625 0.6984127
vt 0.171875 0.6984127
vt 0.5 0.3730159
vt 0.515625 0.3730159
vt 0.53125 0.3730159
vt 0.5 0.3412699
vt 0.515625 0.3412699
vt 0.515625 0.3492063
vt 0.5 0.3492063
vt 0.53125 0.3412699
vt 0.53125 0.3492063
vt 0.546875 0.3412699
vt 0.546875 0.3492063
vt 0.5625 0.3412699
vt 0.5625 0.3492063
vt 0.09375 0
vt 0.109375 0
vt 0.125 0
vt 0.5 0.3650793
vt 0.515625 0.3650793
vt 0.53125 0.3650793
vt 0.5 0.3333333
vt 0.515625 0.3333333
vt 0.53125 0.3333333
vt 0.546875 0.3333333
vt 0.5625 0.3333333
vt 0.625 0.4365079
vt 0.640625 0.4365079
vt 0.640625 0.4444444
vt 0.625 0.4444444
vt 0.65625 0.4365079
vt 0.65625 0.4444444
vt 0.671875 0.4365079
vt 0.671875 0.4444444
vt 0.6875 0.4365079
vt 0.6875 0.4444444
vt 0.625 0.4285714
vt 0.640625 0.4285714
vt 0.65625 0.4285714
vt 0.671875 0.4285714
vt 0.6875 0.4285714
vt 0.625 0.4206349
vt 0.640625 0.4206349
vt 0.65625 0.4206349
vt 0.671875 0.4206349
vt 0.6875 0.4206349
vt 0.625 0.4126984
vt 0.640625 0.4126984
vt 0.65625 0.4126984
vt 0.671875 0.4126984
vt 0.6875 0.4126984
vt 0.15625 0.007936537
vt 0.171875 0.007936537
vt 0.171875 0.01587301
vt 0.15625 0.01587301
vt 0.1875 0.007936537
vt 0.1875 0.01587301
vt 0.15625 0
vt 0.171875 0
vt 0.1875 0

# Normal
vn 0 0 -1

# Mesh description
g Station_mesh_0003

# Faces
f 1/1/1 2/2/1 3/3/1 4/4/1
f 5/1/1 6/2/1 7/3/1 8/4/1
f 9/1/1 10/2/1 11/3/1 12/4/1
f 13/1/1 14/2/1 15/3/1 16/4/1
f 17/2/1 18/5/1 19/6/1 20/3/1
f 21/2/1 22/5/1 23/6/1 24/3/1
f 25/2/1 26/5/1 27/6/1 28/3/1
f 29/2/1 30/5/1 31/6/1 32/3/1
f 33/2/1 34/5/1 35/6/1 36/3/1
f 37/2/1 38/5/1 39/6/1 40/3/1
f 41/2/1 42/5/1 43/6/1 44/3/1
f 45/2/1 46/5/1 47/6/1 48/3/1
f 49/2/1 50/5/1 51/6/1 52/3/1
f 53/2/1 54/5/1 55/6/1 56/3/1
f 57/1/1 58/2/1 59/3/1 60/4/1
f 61/2/1 62/5/1 63/6/1 64/3/1
f 65/1/1 66/2/1 67/3/1 68/4/1
f 69/2/1 70/5/1 71/6/1 72/3/1
f 73/7/1 74/8/1 75/9/1 76/10/1
f 77/7/1 78/8/1 79/9/1 80/10/1
f 81/7/1 82/8/1 83/9/1 84/10/1
f 85/7/1 86/8/1 87/9/1 88/10/1
f 89/11/1 90/12/1 91/13/1 92/14/1
f 93/12/1 94/15/1 95/16/1 96/13/1
f 97/7/1 98/8/1 99/9/1 100/10/1
f 101/7/1 102/8/1 103/9/1 104/10/1
f 105/7/1 106/8/1 107/9/1 108/10/1
f 109/7/1 110/8/1 111/9/1 112/10/1
f 113/7/1 114/8/1 115/9/1 116/10/1
f 117/7/1 118/8/1 119/9/1 120/10/1
f 121/7/1 122/8/1 123/9/1 124/10/1
f 125/8/1 126/17/1 127/18/1 128/9/1
f 129/19/1 130/20/1 131/2/1 132/1/1
f 133/20/1 134/21/1 135/5/1 136/2/1
f 137/7/1 138/8/1 139/9/1 140/10/1
f 141/8/1 142/17/1 143/18/1 144/9/1
f 145/22/1 146/23/1 147/24/1 148/25/1
f 149/23/1 150/26/1 151/27/1 152/24/1
f 153/23/1 154/26/1 155/27/1 156/24/1
f 157/23/1 158/26/1 159/27/1 160/24/1
f 161/28/1 162/29/1 163/12/1 164/11/1
f 165/29/1 166/30/1 167/15/1 168/12/1
f 169/23/1 170/26/1 171/27/1 172/24/1
f 173/23/1 174/26/1 175/27/1 176/24/1
f 177/23/1 178/26/1 179/27/1 180/24/1
f 181/23/1 182/26/1 183/27/1 184/24/1
f 185/23/1 186/26/1 187/27/1 188/24/1
f 189/23/1 190/26/1 191/27/1 192/24/1
f 193/23/1 194/26/1 195/27/1 196/24/1
f 197/23/1 198/26/1 199/27/1 200/24/1
f 201/31/1 202/32/1 203/20/1 204/19/1
f 205/32/1 206/33/1 207/21/1 208/20/1
f 209/22/1 210/23/1 211/24/1 212/25/1
f 213/23/1 214/26/1 215/27/1 216/24/1
f 217/34/1 218/35/1 219/23/1 220/22/1
f 221/35/1 222/36/1 223/26/1 224/23/1
f 225/35/1 226/36/1 227/26/1 228/23/1
f 229/35/1 230/36/1 231/26/1 232/23/1
f 233/37/1 234/38/1 235/29/1 236/28/1
f 237/38/1 238/39/1 239/30/1 240/29/1
f 241/40/1 242/41/1 243/42/1 244/43/1
f 245/41/1 246/44/1 247/45/1 248/42/1
f 249/44/1 250/46/1 251/47/1 252/45/1
f 253/46/1 254/48/1 255/49/1 256/47/1
f 257/35/1 258/36/1 259/26/1 260/23/1
f 261/35/1 262/36/1 263/26/1 264/23/1
f 265/35/1 266/36/1 267/26/1 268/23/1
f 269/35/1 270/36/1 271/26/1 272/23/1
f 273/50/1 274/51/1 275/32/1 276/31/1
f 277/51/1 278/52/1 279/33/1 280/32/1
f 281/34/1 282/35/1 283/23/1 284/22/1
f 285/35/1 286/36/1 287/26/1 288/23/1
f 289/53/1 290/54/1 291/38/1 292/37/1
f 293/54/1 294/55/1 295/39/1 296/38/1
f 297/56/1 298/57/1 299/41/1 300/40/1
f 301/57/1 302/58/1 303/44/1 304/41/1
f 305/58/1 306/59/1 307/46/1 308/44/1
f 309/59/1 310/60/1 311/48/1 312/46/1
f 313/61/1 314/62/1 315/63/1 316/64/1
f 317/62/1 318/65/1 319/66/1 320/63/1
f 321/65/1 322/67/1 323/68/1 324/66/1
f 325/67/1 326/69/1 327/70/1 328/68/1
f 329/71/1 330/72/1 331/62/1 332/61/1
f 333/72/1 334/73/1 335/65/1 336/62/1
f 337/73/1 338/74/1 339/67/1 340/65/1
f 341/74/1 342/75/1 343/69/1 344/67/1
f 345/76/1 346/77/1 347/72/1 348/71/1
f 349/77/1 350/78/1 351/73/1 352/72/1
f 353/78/1 354/79/1 355/74/1 356/73/1
f 357/79/1 358/80/1 359/75/1 360/74/1
f 361/81/1 362/82/1 363/77/1 364/76/1
f 365/82/1 366/83/1 367/78/1 368/77/1
f 369/83/1 370/84/1 371/79/1 372/78/1
f 373/84/1 374/85/1 375/80/1 376/79/1
f 377/86/1 378/87/1 379/88/1 380/89/1
f 381/87/1 382/90/1 383/91/1 384/88/1
f 385/92/1 386/93/1 387/87/1 388/86/1
f 389/93/1 390/94/1 391/90/1 392/87/1

