# Tiled2Unity generated file. Do not modify by hand.
# Wavefront file for 'Station_mesh_0008.obj'

# Vertices (Count = 64)
v -272 -480 0
v -288 -480 0
v -288 -464 0
v -272 -464 0
v -288 -480 0
v -304 -480 0
v -304 -464 0
v -288 -464 0
v -304 -480 0
v -320 -480 0
v -320 -464 0
v -304 -464 0
v -320 -480 0
v -336 -480 0
v -336 -464 0
v -320 -464 0
v -336 -480 0
v -352 -480 0
v -352 -464 0
v -336 -464 0
v -352 -480 0
v -368 -480 0
v -368 -464 0
v -352 -464 0
v -368 -480 0
v -384 -480 0
v -384 -464 0
v -368 -464 0
v -384 -480 0
v -400 -480 0
v -400 -464 0
v -384 -464 0
v -400 -480 0
v -416 -480 0
v -416 -464 0
v -400 -464 0
v -448 -480 0
v -464 -480 0
v -464 -464 0
v -448 -464 0
v -464 -480 0
v -480 -480 0
v -480 -464 0
v -464 -464 0
v -480 -480 0
v -496 -480 0
v -496 -464 0
v -480 -464 0
v -496 -480 0
v -512 -480 0
v -512 -464 0
v -496 -464 0
v -512 -480 0
v -528 -480 0
v -528 -464 0
v -512 -464 0
v -528 -480 0
v -544 -480 0
v -544 -464 0
v -528 -464 0
v -544 -480 0
v -560 -480 0
v -560 -464 0
v -544 -464 0

# Texture cooridinates (Count = 10)
vt 0 0.25
vt 0.03125 0.25
vt 0.03125 0.3125
vt 0 0.3125
vt 0.0625 0.25
vt 0.0625 0.3125
vt 0.09375 0.25
vt 0.09375 0.3125
vt 0.125 0.25
vt 0.125 0.3125

# Normal
vn 0 0 -1

# Mesh description
g Station_mesh_0008

# Faces
f 1/1/1 2/2/1 3/3/1 4/4/1
f 5/2/1 6/5/1 7/6/1 8/3/1
f 9/5/1 10/7/1 11/8/1 12/6/1
f 13/5/1 14/7/1 15/8/1 16/6/1
f 17/5/1 18/7/1 19/8/1 20/6/1
f 21/5/1 22/7/1 23/8/1 24/6/1
f 25/5/1 26/7/1 27/8/1 28/6/1
f 29/5/1 30/7/1 31/8/1 32/6/1
f 33/5/1 34/7/1 35/8/1 36/6/1
f 37/2/1 38/5/1 39/6/1 40/3/1
f 41/2/1 42/5/1 43/6/1 44/3/1
f 45/2/1 46/5/1 47/6/1 48/3/1
f 49/2/1 50/5/1 51/6/1 52/3/1
f 53/2/1 54/5/1 55/6/1 56/3/1
f 57/2/1 58/5/1 59/6/1 60/3/1
f 61/7/1 62/9/1 63/10/1 64/8/1

