# Tiled2Unity generated file. Do not modify by hand.
# Wavefront file for 'Station_mesh_0005.obj'

# Vertices (Count = 32)
v -496 -304 0
v -512 -304 0
v -512 -288 0
v -496 -288 0
v -512 -304 0
v -528 -304 0
v -528 -288 0
v -512 -288 0
v -496 -320 0
v -512 -320 0
v -512 -304 0
v -496 -304 0
v -512 -320 0
v -528 -320 0
v -528 -304 0
v -512 -304 0
v -496 -336 0
v -512 -336 0
v -512 -320 0
v -496 -320 0
v -512 -336 0
v -528 -336 0
v -528 -320 0
v -512 -320 0
v -496 -352 0
v -512 -352 0
v -512 -336 0
v -496 -336 0
v -512 -352 0
v -528 -352 0
v -528 -336 0
v -512 -336 0

# Texture cooridinates (Count = 15)
vt 0.09375 0.02380955
vt 0.109375 0.02380955
vt 0.109375 0.03174603
vt 0.09375 0.03174603
vt 0.125 0.02380955
vt 0.125 0.03174603
vt 0.09375 0.01587301
vt 0.109375 0.01587301
vt 0.125 0.01587301
vt 0.09375 0.007936537
vt 0.109375 0.007936537
vt 0.125 0.007936537
vt 0.09375 0
vt 0.109375 0
vt 0.125 0

# Normal
vn 0 0 -1

# Mesh description
g Station_mesh_0005

# Faces
f 1/1/1 2/2/1 3/3/1 4/4/1
f 5/2/1 6/5/1 7/6/1 8/3/1
f 9/7/1 10/8/1 11/2/1 12/1/1
f 13/8/1 14/9/1 15/5/1 16/2/1
f 17/10/1 18/11/1 19/8/1 20/7/1
f 21/11/1 22/12/1 23/9/1 24/8/1
f 25/13/1 26/14/1 27/11/1 28/10/1
f 29/14/1 30/15/1 31/12/1 32/11/1

