# Tiled2Unity generated file. Do not modify by hand.
# Wavefront file for 'Strong-Winds_mesh_0011.obj'

# Vertices (Count = 308)
v -720 -560 0
v -736 -560 0
v -736 -544 0
v -720 -544 0
v -736 -560 0
v -752 -560 0
v -752 -544 0
v -736 -544 0
v -752 -560 0
v -768 -560 0
v -768 -544 0
v -752 -544 0
v -768 -560 0
v -784 -560 0
v -784 -544 0
v -768 -544 0
v -784 -560 0
v -800 -560 0
v -800 -544 0
v -784 -544 0
v -800 -560 0
v -816 -560 0
v -816 -544 0
v -800 -544 0
v -816 -560 0
v -832 -560 0
v -832 -544 0
v -816 -544 0
v -832 -560 0
v -848 -560 0
v -848 -544 0
v -832 -544 0
v -848 -560 0
v -864 -560 0
v -864 -544 0
v -848 -544 0
v -864 -560 0
v -880 -560 0
v -880 -544 0
v -864 -544 0
v -880 -560 0
v -896 -560 0
v -896 -544 0
v -880 -544 0
v -896 -560 0
v -912 -560 0
v -912 -544 0
v -896 -544 0
v -912 -560 0
v -928 -560 0
v -928 -544 0
v -912 -544 0
v -928 -560 0
v -944 -560 0
v -944 -544 0
v -928 -544 0
v -944 -560 0
v -960 -560 0
v -960 -544 0
v -944 -544 0
v -960 -560 0
v -976 -560 0
v -976 -544 0
v -960 -544 0
v -1008 -560 0
v -1024 -560 0
v -1024 -544 0
v -1008 -544 0
v -720 -576 0
v -736 -576 0
v -736 -560 0
v -720 -560 0
v -736 -576 0
v -752 -576 0
v -752 -560 0
v -736 -560 0
v -752 -576 0
v -768 -576 0
v -768 -560 0
v -752 -560 0
v -768 -576 0
v -784 -576 0
v -784 -560 0
v -768 -560 0
v -784 -576 0
v -800 -576 0
v -800 -560 0
v -784 -560 0
v -800 -576 0
v -816 -576 0
v -816 -560 0
v -800 -560 0
v -816 -576 0
v -832 -576 0
v -832 -560 0
v -816 -560 0
v -832 -576 0
v -848 -576 0
v -848 -560 0
v -832 -560 0
v -848 -576 0
v -864 -576 0
v -864 -560 0
v -848 -560 0
v -864 -576 0
v -880 -576 0
v -880 -560 0
v -864 -560 0
v -880 -576 0
v -896 -576 0
v -896 -560 0
v -880 -560 0
v -896 -576 0
v -912 -576 0
v -912 -560 0
v -896 -560 0
v -912 -576 0
v -928 -576 0
v -928 -560 0
v -912 -560 0
v -928 -576 0
v -944 -576 0
v -944 -560 0
v -928 -560 0
v -944 -576 0
v -960 -576 0
v -960 -560 0
v -944 -560 0
v -960 -576 0
v -976 -576 0
v -976 -560 0
v -960 -560 0
v -1008 -576 0
v -1024 -576 0
v -1024 -560 0
v -1008 -560 0
v -720 -592 0
v -736 -592 0
v -736 -576 0
v -720 -576 0
v -736 -592 0
v -752 -592 0
v -752 -576 0
v -736 -576 0
v -752 -592 0
v -768 -592 0
v -768 -576 0
v -752 -576 0
v -768 -592 0
v -784 -592 0
v -784 -576 0
v -768 -576 0
v -784 -592 0
v -800 -592 0
v -800 -576 0
v -784 -576 0
v -800 -592 0
v -816 -592 0
v -816 -576 0
v -800 -576 0
v -816 -592 0
v -832 -592 0
v -832 -576 0
v -816 -576 0
v -832 -592 0
v -848 -592 0
v -848 -576 0
v -832 -576 0
v -848 -592 0
v -864 -592 0
v -864 -576 0
v -848 -576 0
v -864 -592 0
v -880 -592 0
v -880 -576 0
v -864 -576 0
v -880 -592 0
v -896 -592 0
v -896 -576 0
v -880 -576 0
v -896 -592 0
v -912 -592 0
v -912 -576 0
v -896 -576 0
v -912 -592 0
v -928 -592 0
v -928 -576 0
v -912 -576 0
v -928 -592 0
v -944 -592 0
v -944 -576 0
v -928 -576 0
v -944 -592 0
v -960 -592 0
v -960 -576 0
v -944 -576 0
v -960 -592 0
v -976 -592 0
v -976 -576 0
v -960 -576 0
v -1008 -592 0
v -1024 -592 0
v -1024 -576 0
v -1008 -576 0
v -720 -656 0
v -736 -656 0
v -736 -640 0
v -720 -640 0
v -736 -656 0
v -752 -656 0
v -752 -640 0
v -736 -640 0
v -752 -656 0
v -768 -656 0
v -768 -640 0
v -752 -640 0
v -768 -656 0
v -784 -656 0
v -784 -640 0
v -768 -640 0
v -784 -656 0
v -800 -656 0
v -800 -640 0
v -784 -640 0
v -832 -656 0
v -848 -656 0
v -848 -640 0
v -832 -640 0
v -848 -656 0
v -864 -656 0
v -864 -640 0
v -848 -640 0
v -864 -656 0
v -880 -656 0
v -880 -640 0
v -864 -640 0
v -880 -656 0
v -896 -656 0
v -896 -640 0
v -880 -640 0
v -896 -656 0
v -912 -656 0
v -912 -640 0
v -896 -640 0
v -912 -656 0
v -928 -656 0
v -928 -640 0
v -912 -640 0
v -928 -656 0
v -944 -656 0
v -944 -640 0
v -928 -640 0
v -544 -672 0
v -560 -672 0
v -560 -656 0
v -544 -656 0
v -560 -672 0
v -576 -672 0
v -576 -656 0
v -560 -656 0
v -576 -672 0
v -592 -672 0
v -592 -656 0
v -576 -656 0
v -592 -672 0
v -608 -672 0
v -608 -656 0
v -592 -656 0
v -608 -672 0
v -624 -672 0
v -624 -656 0
v -608 -656 0
v -624 -672 0
v -640 -672 0
v -640 -656 0
v -624 -656 0
v -640 -672 0
v -656 -672 0
v -656 -656 0
v -640 -656 0
v -656 -672 0
v -672 -672 0
v -672 -656 0
v -656 -656 0
v -672 -672 0
v -688 -672 0
v -688 -656 0
v -672 -656 0
v -688 -672 0
v -704 -672 0
v -704 -656 0
v -688 -656 0
v -544 -688 0
v -560 -688 0
v -560 -672 0
v -544 -672 0
v -560 -688 0
v -576 -688 0
v -576 -672 0
v -560 -672 0
v -672 -688 0
v -688 -688 0
v -688 -672 0
v -672 -672 0
v -688 -688 0
v -704 -688 0
v -704 -672 0
v -688 -672 0

# Texture cooridinates (Count = 39)
vt 0.21875 0.6825397
vt 0.234375 0.6825397
vt 0.234375 0.6904762
vt 0.21875 0.6904762
vt 0.25 0.6825397
vt 0.25 0.6904762
vt 0.1875 0.6825397
vt 0.203125 0.6825397
vt 0.203125 0.6904762
vt 0.1875 0.6904762
vt 0.21875 0.6746032
vt 0.234375 0.6746032
vt 0.25 0.6746032
vt 0.265625 0.6666666
vt 0.28125 0.6666666
vt 0.28125 0.6746032
vt 0.265625 0.6746032
vt 0.296875 0.6666666
vt 0.296875 0.6746032
vt 0.40625 0.2301587
vt 0.421875 0.2301587
vt 0.421875 0.2380952
vt 0.40625 0.2380952
vt 0.4375 0.2301587
vt 0.4375 0.2380952
vt 0.453125 0.2301587
vt 0.453125 0.2380952
vt 0.46875 0.2301587
vt 0.46875 0.2380952
vt 0.484375 0.2301587
vt 0.484375 0.2380952
vt 0.5 0.2301587
vt 0.5 0.2380952
vt 0.40625 0.2222222
vt 0.421875 0.2222222
vt 0.4375 0.2222222
vt 0.46875 0.2222222
vt 0.484375 0.2222222
vt 0.5 0.2222222

# Normal
vn 0 0 -1

# Mesh description
g Strong-Winds_mesh_0011

# Faces
f 1/1/1 2/2/1 3/3/1 4/4/1
f 5/2/1 6/5/1 7/6/1 8/3/1
f 9/1/1 10/2/1 11/3/1 12/4/1
f 13/2/1 14/5/1 15/6/1 16/3/1
f 17/1/1 18/2/1 19/3/1 20/4/1
f 21/2/1 22/5/1 23/6/1 24/3/1
f 25/1/1 26/2/1 27/3/1 28/4/1
f 29/2/1 30/5/1 31/6/1 32/3/1
f 33/1/1 34/2/1 35/3/1 36/4/1
f 37/2/1 38/5/1 39/6/1 40/3/1
f 41/1/1 42/2/1 43/3/1 44/4/1
f 45/2/1 46/5/1 47/6/1 48/3/1
f 49/1/1 50/2/1 51/3/1 52/4/1
f 53/2/1 54/5/1 55/6/1 56/3/1
f 57/7/1 58/8/1 59/9/1 60/10/1
f 61/8/1 62/1/1 63/4/1 64/9/1
f 65/11/1 66/12/1 67/2/1 68/1/1
f 69/11/1 70/12/1 71/2/1 72/1/1
f 73/12/1 74/13/1 75/5/1 76/2/1
f 77/11/1 78/12/1 79/2/1 80/1/1
f 81/12/1 82/13/1 83/5/1 84/2/1
f 85/11/1 86/12/1 87/2/1 88/1/1
f 89/12/1 90/13/1 91/5/1 92/2/1
f 93/11/1 94/12/1 95/2/1 96/1/1
f 97/12/1 98/13/1 99/5/1 100/2/1
f 101/11/1 102/12/1 103/2/1 104/1/1
f 105/12/1 106/13/1 107/5/1 108/2/1
f 109/11/1 110/12/1 111/2/1 112/1/1
f 113/12/1 114/13/1 115/5/1 116/2/1
f 117/11/1 118/12/1 119/2/1 120/1/1
f 121/12/1 122/13/1 123/5/1 124/2/1
f 125/11/1 126/12/1 127/2/1 128/1/1
f 129/12/1 130/13/1 131/5/1 132/2/1
f 133/11/1 134/12/1 135/2/1 136/1/1
f 137/11/1 138/12/1 139/2/1 140/1/1
f 141/12/1 142/13/1 143/5/1 144/2/1
f 145/11/1 146/12/1 147/2/1 148/1/1
f 149/12/1 150/13/1 151/5/1 152/2/1
f 153/11/1 154/12/1 155/2/1 156/1/1
f 157/12/1 158/13/1 159/5/1 160/2/1
f 161/11/1 162/12/1 163/2/1 164/1/1
f 165/12/1 166/13/1 167/5/1 168/2/1
f 169/11/1 170/12/1 171/2/1 172/1/1
f 173/12/1 174/13/1 175/5/1 176/2/1
f 177/11/1 178/12/1 179/2/1 180/1/1
f 181/12/1 182/13/1 183/5/1 184/2/1
f 185/11/1 186/12/1 187/2/1 188/1/1
f 189/12/1 190/13/1 191/5/1 192/2/1
f 193/11/1 194/12/1 195/2/1 196/1/1
f 197/12/1 198/13/1 199/5/1 200/2/1
f 201/11/1 202/12/1 203/2/1 204/1/1
f 205/14/1 206/15/1 207/16/1 208/17/1
f 209/15/1 210/18/1 211/19/1 212/16/1
f 213/15/1 214/18/1 215/19/1 216/16/1
f 217/14/1 218/15/1 219/16/1 220/17/1
f 221/15/1 222/18/1 223/19/1 224/16/1
f 225/14/1 226/15/1 227/16/1 228/17/1
f 229/15/1 230/18/1 231/19/1 232/16/1
f 233/14/1 234/15/1 235/16/1 236/17/1
f 237/15/1 238/18/1 239/19/1 240/16/1
f 241/15/1 242/18/1 243/19/1 244/16/1
f 245/15/1 246/18/1 247/19/1 248/16/1
f 249/15/1 250/18/1 251/19/1 252/16/1
f 253/20/1 254/21/1 255/22/1 256/23/1
f 257/21/1 258/24/1 259/25/1 260/22/1
f 261/24/1 262/26/1 263/27/1 264/25/1
f 265/24/1 266/26/1 267/27/1 268/25/1
f 269/24/1 270/26/1 271/27/1 272/25/1
f 273/24/1 274/26/1 275/27/1 276/25/1
f 277/26/1 278/28/1 279/29/1 280/27/1
f 281/24/1 282/26/1 283/27/1 284/25/1
f 285/28/1 286/30/1 287/31/1 288/29/1
f 289/30/1 290/32/1 291/33/1 292/31/1
f 293/34/1 294/35/1 295/21/1 296/20/1
f 297/35/1 298/36/1 299/24/1 300/21/1
f 301/37/1 302/38/1 303/30/1 304/28/1
f 305/38/1 306/39/1 307/32/1 308/30/1

