# Tiled2Unity generated file. Do not modify by hand.
# Wavefront file for 'Strong-Winds_mesh_0012.obj'

# Vertices (Count = 352)
v -720 -560 0
v -736 -560 0
v -736 -544 0
v -720 -544 0
v -736 -560 0
v -752 -560 0
v -752 -544 0
v -736 -544 0
v -752 -560 0
v -768 -560 0
v -768 -544 0
v -752 -544 0
v -768 -560 0
v -784 -560 0
v -784 -544 0
v -768 -544 0
v -784 -560 0
v -800 -560 0
v -800 -544 0
v -784 -544 0
v -800 -560 0
v -816 -560 0
v -816 -544 0
v -800 -544 0
v -816 -560 0
v -832 -560 0
v -832 -544 0
v -816 -544 0
v -832 -560 0
v -848 -560 0
v -848 -544 0
v -832 -544 0
v -848 -560 0
v -864 -560 0
v -864 -544 0
v -848 -544 0
v -864 -560 0
v -880 -560 0
v -880 -544 0
v -864 -544 0
v -880 -560 0
v -896 -560 0
v -896 -544 0
v -880 -544 0
v -896 -560 0
v -912 -560 0
v -912 -544 0
v -896 -544 0
v -912 -560 0
v -928 -560 0
v -928 -544 0
v -912 -544 0
v -928 -560 0
v -944 -560 0
v -944 -544 0
v -928 -544 0
v -944 -560 0
v -960 -560 0
v -960 -544 0
v -944 -544 0
v -960 -560 0
v -976 -560 0
v -976 -544 0
v -960 -544 0
v -1008 -560 0
v -1024 -560 0
v -1024 -544 0
v -1008 -544 0
v -1024 -560 0
v -1040 -560 0
v -1040 -544 0
v -1024 -544 0
v -1040 -560 0
v -1056 -560 0
v -1056 -544 0
v -1040 -544 0
v -1056 -560 0
v -1072 -560 0
v -1072 -544 0
v -1056 -544 0
v -1072 -560 0
v -1088 -560 0
v -1088 -544 0
v -1072 -544 0
v -720 -576 0
v -736 -576 0
v -736 -560 0
v -720 -560 0
v -736 -576 0
v -752 -576 0
v -752 -560 0
v -736 -560 0
v -752 -576 0
v -768 -576 0
v -768 -560 0
v -752 -560 0
v -768 -576 0
v -784 -576 0
v -784 -560 0
v -768 -560 0
v -784 -576 0
v -800 -576 0
v -800 -560 0
v -784 -560 0
v -800 -576 0
v -816 -576 0
v -816 -560 0
v -800 -560 0
v -816 -576 0
v -832 -576 0
v -832 -560 0
v -816 -560 0
v -832 -576 0
v -848 -576 0
v -848 -560 0
v -832 -560 0
v -848 -576 0
v -864 -576 0
v -864 -560 0
v -848 -560 0
v -864 -576 0
v -880 -576 0
v -880 -560 0
v -864 -560 0
v -880 -576 0
v -896 -576 0
v -896 -560 0
v -880 -560 0
v -896 -576 0
v -912 -576 0
v -912 -560 0
v -896 -560 0
v -912 -576 0
v -928 -576 0
v -928 -560 0
v -912 -560 0
v -928 -576 0
v -944 -576 0
v -944 -560 0
v -928 -560 0
v -944 -576 0
v -960 -576 0
v -960 -560 0
v -944 -560 0
v -960 -576 0
v -976 -576 0
v -976 -560 0
v -960 -560 0
v -1008 -576 0
v -1024 -576 0
v -1024 -560 0
v -1008 -560 0
v -1024 -576 0
v -1040 -576 0
v -1040 -560 0
v -1024 -560 0
v -1040 -576 0
v -1056 -576 0
v -1056 -560 0
v -1040 -560 0
v -1056 -576 0
v -1072 -576 0
v -1072 -560 0
v -1056 -560 0
v -1104 -576 0
v -1120 -576 0
v -1120 -560 0
v -1104 -560 0
v -720 -592 0
v -736 -592 0
v -736 -576 0
v -720 -576 0
v -736 -592 0
v -752 -592 0
v -752 -576 0
v -736 -576 0
v -752 -592 0
v -768 -592 0
v -768 -576 0
v -752 -576 0
v -768 -592 0
v -784 -592 0
v -784 -576 0
v -768 -576 0
v -784 -592 0
v -800 -592 0
v -800 -576 0
v -784 -576 0
v -800 -592 0
v -816 -592 0
v -816 -576 0
v -800 -576 0
v -816 -592 0
v -832 -592 0
v -832 -576 0
v -816 -576 0
v -832 -592 0
v -848 -592 0
v -848 -576 0
v -832 -576 0
v -848 -592 0
v -864 -592 0
v -864 -576 0
v -848 -576 0
v -864 -592 0
v -880 -592 0
v -880 -576 0
v -864 -576 0
v -880 -592 0
v -896 -592 0
v -896 -576 0
v -880 -576 0
v -896 -592 0
v -912 -592 0
v -912 -576 0
v -896 -576 0
v -912 -592 0
v -928 -592 0
v -928 -576 0
v -912 -576 0
v -928 -592 0
v -944 -592 0
v -944 -576 0
v -928 -576 0
v -944 -592 0
v -960 -592 0
v -960 -576 0
v -944 -576 0
v -960 -592 0
v -976 -592 0
v -976 -576 0
v -960 -576 0
v -1008 -592 0
v -1024 -592 0
v -1024 -576 0
v -1008 -576 0
v -1024 -592 0
v -1040 -592 0
v -1040 -576 0
v -1024 -576 0
v -1040 -592 0
v -1056 -592 0
v -1056 -576 0
v -1040 -576 0
v -1088 -624 0
v -1104 -624 0
v -1104 -608 0
v -1088 -608 0
v -720 -656 0
v -736 -656 0
v -736 -640 0
v -720 -640 0
v -736 -656 0
v -752 -656 0
v -752 -640 0
v -736 -640 0
v -752 -656 0
v -768 -656 0
v -768 -640 0
v -752 -640 0
v -768 -656 0
v -784 -656 0
v -784 -640 0
v -768 -640 0
v -784 -656 0
v -800 -656 0
v -800 -640 0
v -784 -640 0
v -832 -656 0
v -848 -656 0
v -848 -640 0
v -832 -640 0
v -848 -656 0
v -864 -656 0
v -864 -640 0
v -848 -640 0
v -864 -656 0
v -880 -656 0
v -880 -640 0
v -864 -640 0
v -880 -656 0
v -896 -656 0
v -896 -640 0
v -880 -640 0
v -896 -656 0
v -912 -656 0
v -912 -640 0
v -896 -640 0
v -912 -656 0
v -928 -656 0
v -928 -640 0
v -912 -640 0
v -928 -656 0
v -944 -656 0
v -944 -640 0
v -928 -640 0
v -544 -672 0
v -560 -672 0
v -560 -656 0
v -544 -656 0
v -560 -672 0
v -576 -672 0
v -576 -656 0
v -560 -656 0
v -576 -672 0
v -592 -672 0
v -592 -656 0
v -576 -656 0
v -592 -672 0
v -608 -672 0
v -608 -656 0
v -592 -656 0
v -608 -672 0
v -624 -672 0
v -624 -656 0
v -608 -656 0
v -624 -672 0
v -640 -672 0
v -640 -656 0
v -624 -656 0
v -640 -672 0
v -656 -672 0
v -656 -656 0
v -640 -656 0
v -656 -672 0
v -672 -672 0
v -672 -656 0
v -656 -656 0
v -672 -672 0
v -688 -672 0
v -688 -656 0
v -672 -656 0
v -688 -672 0
v -704 -672 0
v -704 -656 0
v -688 -656 0
v -544 -688 0
v -560 -688 0
v -560 -672 0
v -544 -672 0
v -560 -688 0
v -576 -688 0
v -576 -672 0
v -560 -672 0
v -672 -688 0
v -688 -688 0
v -688 -672 0
v -672 -672 0
v -688 -688 0
v -704 -688 0
v -704 -672 0
v -688 -672 0

# Texture cooridinates (Count = 50)
vt 0.21875 0.6825397
vt 0.234375 0.6825397
vt 0.234375 0.6904762
vt 0.21875 0.6904762
vt 0.25 0.6825397
vt 0.25 0.6904762
vt 0.1875 0.6825397
vt 0.203125 0.6825397
vt 0.203125 0.6904762
vt 0.1875 0.6904762
vt 0.21875 0.6746032
vt 0.234375 0.6746032
vt 0.1875 0.6507937
vt 0.203125 0.6507937
vt 0.203125 0.6587301
vt 0.1875 0.6587301
vt 0.203125 0.6746032
vt 0.171875 0.5873016
vt 0.1875 0.5873016
vt 0.1875 0.5952381
vt 0.171875 0.5952381
vt 0.25 0.6746032
vt 0.203125 0.6666666
vt 0.21875 0.6666666
vt 0.265625 0.6666666
vt 0.28125 0.6666666
vt 0.28125 0.6746032
vt 0.265625 0.6746032
vt 0.296875 0.6666666
vt 0.296875 0.6746032
vt 0.40625 0.2301587
vt 0.421875 0.2301587
vt 0.421875 0.2380952
vt 0.40625 0.2380952
vt 0.4375 0.2301587
vt 0.4375 0.2380952
vt 0.453125 0.2301587
vt 0.453125 0.2380952
vt 0.46875 0.2301587
vt 0.46875 0.2380952
vt 0.484375 0.2301587
vt 0.484375 0.2380952
vt 0.5 0.2301587
vt 0.5 0.2380952
vt 0.40625 0.2222222
vt 0.421875 0.2222222
vt 0.4375 0.2222222
vt 0.46875 0.2222222
vt 0.484375 0.2222222
vt 0.5 0.2222222

# Normal
vn 0 0 -1

# Mesh description
g Strong-Winds_mesh_0012

# Faces
f 1/1/1 2/2/1 3/3/1 4/4/1
f 5/2/1 6/5/1 7/6/1 8/3/1
f 9/1/1 10/2/1 11/3/1 12/4/1
f 13/2/1 14/5/1 15/6/1 16/3/1
f 17/1/1 18/2/1 19/3/1 20/4/1
f 21/2/1 22/5/1 23/6/1 24/3/1
f 25/1/1 26/2/1 27/3/1 28/4/1
f 29/2/1 30/5/1 31/6/1 32/3/1
f 33/1/1 34/2/1 35/3/1 36/4/1
f 37/2/1 38/5/1 39/6/1 40/3/1
f 41/1/1 42/2/1 43/3/1 44/4/1
f 45/2/1 46/5/1 47/6/1 48/3/1
f 49/1/1 50/2/1 51/3/1 52/4/1
f 53/2/1 54/5/1 55/6/1 56/3/1
f 57/7/1 58/8/1 59/9/1 60/10/1
f 61/8/1 62/1/1 63/4/1 64/9/1
f 65/11/1 66/12/1 67/2/1 68/1/1
f 69/13/1 70/14/1 71/15/1 72/16/1
f 73/13/1 74/14/1 75/15/1 76/16/1
f 77/17/1 78/11/1 79/1/1 80/8/1
f 81/18/1 82/19/1 83/20/1 84/21/1
f 85/11/1 86/12/1 87/2/1 88/1/1
f 89/12/1 90/22/1 91/5/1 92/2/1
f 93/11/1 94/12/1 95/2/1 96/1/1
f 97/12/1 98/22/1 99/5/1 100/2/1
f 101/11/1 102/12/1 103/2/1 104/1/1
f 105/12/1 106/22/1 107/5/1 108/2/1
f 109/11/1 110/12/1 111/2/1 112/1/1
f 113/12/1 114/22/1 115/5/1 116/2/1
f 117/11/1 118/12/1 119/2/1 120/1/1
f 121/12/1 122/22/1 123/5/1 124/2/1
f 125/11/1 126/12/1 127/2/1 128/1/1
f 129/12/1 130/22/1 131/5/1 132/2/1
f 133/11/1 134/12/1 135/2/1 136/1/1
f 137/12/1 138/22/1 139/5/1 140/2/1
f 141/11/1 142/12/1 143/2/1 144/1/1
f 145/12/1 146/22/1 147/5/1 148/2/1
f 149/11/1 150/12/1 151/2/1 152/1/1
f 153/13/1 154/14/1 155/15/1 156/16/1
f 157/17/1 158/11/1 159/1/1 160/8/1
f 161/23/1 162/24/1 163/11/1 164/17/1
f 165/23/1 166/24/1 167/11/1 168/17/1
f 169/11/1 170/12/1 171/2/1 172/1/1
f 173/12/1 174/22/1 175/5/1 176/2/1
f 177/11/1 178/12/1 179/2/1 180/1/1
f 181/12/1 182/22/1 183/5/1 184/2/1
f 185/11/1 186/12/1 187/2/1 188/1/1
f 189/12/1 190/22/1 191/5/1 192/2/1
f 193/11/1 194/12/1 195/2/1 196/1/1
f 197/12/1 198/22/1 199/5/1 200/2/1
f 201/11/1 202/12/1 203/2/1 204/1/1
f 205/12/1 206/22/1 207/5/1 208/2/1
f 209/11/1 210/12/1 211/2/1 212/1/1
f 213/12/1 214/22/1 215/5/1 216/2/1
f 217/11/1 218/12/1 219/2/1 220/1/1
f 221/12/1 222/22/1 223/5/1 224/2/1
f 225/11/1 226/12/1 227/2/1 228/1/1
f 229/12/1 230/22/1 231/5/1 232/2/1
f 233/11/1 234/12/1 235/2/1 236/1/1
f 237/17/1 238/11/1 239/1/1 240/8/1
f 241/23/1 242/24/1 243/11/1 244/17/1
f 245/23/1 246/24/1 247/11/1 248/17/1
f 249/25/1 250/26/1 251/27/1 252/28/1
f 253/26/1 254/29/1 255/30/1 256/27/1
f 257/26/1 258/29/1 259/30/1 260/27/1
f 261/25/1 262/26/1 263/27/1 264/28/1
f 265/26/1 266/29/1 267/30/1 268/27/1
f 269/25/1 270/26/1 271/27/1 272/28/1
f 273/26/1 274/29/1 275/30/1 276/27/1
f 277/25/1 278/26/1 279/27/1 280/28/1
f 281/26/1 282/29/1 283/30/1 284/27/1
f 285/26/1 286/29/1 287/30/1 288/27/1
f 289/26/1 290/29/1 291/30/1 292/27/1
f 293/26/1 294/29/1 295/30/1 296/27/1
f 297/31/1 298/32/1 299/33/1 300/34/1
f 301/32/1 302/35/1 303/36/1 304/33/1
f 305/35/1 306/37/1 307/38/1 308/36/1
f 309/35/1 310/37/1 311/38/1 312/36/1
f 313/35/1 314/37/1 315/38/1 316/36/1
f 317/35/1 318/37/1 319/38/1 320/36/1
f 321/37/1 322/39/1 323/40/1 324/38/1
f 325/35/1 326/37/1 327/38/1 328/36/1
f 329/39/1 330/41/1 331/42/1 332/40/1
f 333/41/1 334/43/1 335/44/1 336/42/1
f 337/45/1 338/46/1 339/32/1 340/31/1
f 341/46/1 342/47/1 343/35/1 344/32/1
f 345/48/1 346/49/1 347/41/1 348/39/1
f 349/49/1 350/50/1 351/43/1 352/41/1

