# Tiled2Unity generated file. Do not modify by hand.
# Wavefront file for 'Strong-Winds_mesh_0017.obj'

# Vertices (Count = 568)
v -720 -384 0
v -736 -384 0
v -736 -368 0
v -720 -368 0
v -736 -384 0
v -752 -384 0
v -752 -368 0
v -736 -368 0
v -752 -384 0
v -768 -384 0
v -768 -368 0
v -752 -368 0
v -768 -384 0
v -784 -384 0
v -784 -368 0
v -768 -368 0
v -784 -384 0
v -800 -384 0
v -800 -368 0
v -784 -368 0
v -800 -384 0
v -816 -384 0
v -816 -368 0
v -800 -368 0
v -816 -384 0
v -832 -384 0
v -832 -368 0
v -816 -368 0
v -832 -384 0
v -848 -384 0
v -848 -368 0
v -832 -368 0
v -848 -384 0
v -864 -384 0
v -864 -368 0
v -848 -368 0
v -864 -384 0
v -880 -384 0
v -880 -368 0
v -864 -368 0
v -880 -384 0
v -896 -384 0
v -896 -368 0
v -880 -368 0
v -896 -384 0
v -912 -384 0
v -912 -368 0
v -896 -368 0
v -912 -384 0
v -928 -384 0
v -928 -368 0
v -912 -368 0
v -928 -384 0
v -944 -384 0
v -944 -368 0
v -928 -368 0
v -944 -384 0
v -960 -384 0
v -960 -368 0
v -944 -368 0
v -960 -384 0
v -976 -384 0
v -976 -368 0
v -960 -368 0
v -976 -384 0
v -992 -384 0
v -992 -368 0
v -976 -368 0
v -992 -384 0
v -1008 -384 0
v -1008 -368 0
v -992 -368 0
v -1008 -384 0
v -1024 -384 0
v -1024 -368 0
v -1008 -368 0
v -1024 -384 0
v -1040 -384 0
v -1040 -368 0
v -1024 -368 0
v -1040 -384 0
v -1056 -384 0
v -1056 -368 0
v -1040 -368 0
v -1056 -384 0
v -1072 -384 0
v -1072 -368 0
v -1056 -368 0
v -1072 -384 0
v -1088 -384 0
v -1088 -368 0
v -1072 -368 0
v -720 -400 0
v -736 -400 0
v -736 -384 0
v -720 -384 0
v -736 -400 0
v -752 -400 0
v -752 -384 0
v -736 -384 0
v -752 -400 0
v -768 -400 0
v -768 -384 0
v -752 -384 0
v -768 -400 0
v -784 -400 0
v -784 -384 0
v -768 -384 0
v -784 -400 0
v -800 -400 0
v -800 -384 0
v -784 -384 0
v -800 -400 0
v -816 -400 0
v -816 -384 0
v -800 -384 0
v -816 -400 0
v -832 -400 0
v -832 -384 0
v -816 -384 0
v -832 -400 0
v -848 -400 0
v -848 -384 0
v -832 -384 0
v -848 -400 0
v -864 -400 0
v -864 -384 0
v -848 -384 0
v -864 -400 0
v -880 -400 0
v -880 -384 0
v -864 -384 0
v -880 -400 0
v -896 -400 0
v -896 -384 0
v -880 -384 0
v -896 -400 0
v -912 -400 0
v -912 -384 0
v -896 -384 0
v -912 -400 0
v -928 -400 0
v -928 -384 0
v -912 -384 0
v -928 -400 0
v -944 -400 0
v -944 -384 0
v -928 -384 0
v -944 -400 0
v -960 -400 0
v -960 -384 0
v -944 -384 0
v -960 -400 0
v -976 -400 0
v -976 -384 0
v -960 -384 0
v -976 -400 0
v -992 -400 0
v -992 -384 0
v -976 -384 0
v -992 -400 0
v -1008 -400 0
v -1008 -384 0
v -992 -384 0
v -1008 -400 0
v -1024 -400 0
v -1024 -384 0
v -1008 -384 0
v -1024 -400 0
v -1040 -400 0
v -1040 -384 0
v -1024 -384 0
v -1040 -400 0
v -1056 -400 0
v -1056 -384 0
v -1040 -384 0
v -1056 -400 0
v -1072 -400 0
v -1072 -384 0
v -1056 -384 0
v -1072 -400 0
v -1088 -400 0
v -1088 -384 0
v -1072 -384 0
v -720 -416 0
v -736 -416 0
v -736 -400 0
v -720 -400 0
v -736 -416 0
v -752 -416 0
v -752 -400 0
v -736 -400 0
v -752 -416 0
v -768 -416 0
v -768 -400 0
v -752 -400 0
v -768 -416 0
v -784 -416 0
v -784 -400 0
v -768 -400 0
v -784 -416 0
v -800 -416 0
v -800 -400 0
v -784 -400 0
v -800 -416 0
v -816 -416 0
v -816 -400 0
v -800 -400 0
v -816 -416 0
v -832 -416 0
v -832 -400 0
v -816 -400 0
v -832 -416 0
v -848 -416 0
v -848 -400 0
v -832 -400 0
v -848 -416 0
v -864 -416 0
v -864 -400 0
v -848 -400 0
v -864 -416 0
v -880 -416 0
v -880 -400 0
v -864 -400 0
v -880 -416 0
v -896 -416 0
v -896 -400 0
v -880 -400 0
v -896 -416 0
v -912 -416 0
v -912 -400 0
v -896 -400 0
v -912 -416 0
v -928 -416 0
v -928 -400 0
v -912 -400 0
v -928 -416 0
v -944 -416 0
v -944 -400 0
v -928 -400 0
v -944 -416 0
v -960 -416 0
v -960 -400 0
v -944 -400 0
v -960 -416 0
v -976 -416 0
v -976 -400 0
v -960 -400 0
v -976 -416 0
v -992 -416 0
v -992 -400 0
v -976 -400 0
v -992 -416 0
v -1008 -416 0
v -1008 -400 0
v -992 -400 0
v -1008 -416 0
v -1024 -416 0
v -1024 -400 0
v -1008 -400 0
v -1024 -416 0
v -1040 -416 0
v -1040 -400 0
v -1024 -400 0
v -1040 -416 0
v -1056 -416 0
v -1056 -400 0
v -1040 -400 0
v -1056 -416 0
v -1072 -416 0
v -1072 -400 0
v -1056 -400 0
v -1072 -416 0
v -1088 -416 0
v -1088 -400 0
v -1072 -400 0
v -704 -432 0
v -720 -432 0
v -720 -416 0
v -704 -416 0
v -720 -432 0
v -736 -432 0
v -736 -416 0
v -720 -416 0
v -1056 -432 0
v -1072 -432 0
v -1072 -416 0
v -1056 -416 0
v -1072 -432 0
v -1088 -432 0
v -1088 -416 0
v -1072 -416 0
v -704 -448 0
v -720 -448 0
v -720 -432 0
v -704 -432 0
v -720 -448 0
v -736 -448 0
v -736 -432 0
v -720 -432 0
v -1056 -448 0
v -1072 -448 0
v -1072 -432 0
v -1056 -432 0
v -704 -464 0
v -720 -464 0
v -720 -448 0
v -704 -448 0
v -720 -464 0
v -736 -464 0
v -736 -448 0
v -720 -448 0
v -1056 -464 0
v -1072 -464 0
v -1072 -448 0
v -1056 -448 0
v -704 -480 0
v -720 -480 0
v -720 -464 0
v -704 -464 0
v -720 -480 0
v -736 -480 0
v -736 -464 0
v -720 -464 0
v -1056 -480 0
v -1072 -480 0
v -1072 -464 0
v -1056 -464 0
v -704 -496 0
v -720 -496 0
v -720 -480 0
v -704 -480 0
v -704 -512 0
v -720 -512 0
v -720 -496 0
v -704 -496 0
v -704 -528 0
v -720 -528 0
v -720 -512 0
v -704 -512 0
v -720 -528 0
v -736 -528 0
v -736 -512 0
v -720 -512 0
v -736 -528 0
v -752 -528 0
v -752 -512 0
v -736 -512 0
v -752 -528 0
v -768 -528 0
v -768 -512 0
v -752 -512 0
v -768 -528 0
v -784 -528 0
v -784 -512 0
v -768 -512 0
v -784 -528 0
v -800 -528 0
v -800 -512 0
v -784 -512 0
v -800 -528 0
v -816 -528 0
v -816 -512 0
v -800 -512 0
v -816 -528 0
v -832 -528 0
v -832 -512 0
v -816 -512 0
v -832 -528 0
v -848 -528 0
v -848 -512 0
v -832 -512 0
v -848 -528 0
v -864 -528 0
v -864 -512 0
v -848 -512 0
v -864 -528 0
v -880 -528 0
v -880 -512 0
v -864 -512 0
v -880 -528 0
v -896 -528 0
v -896 -512 0
v -880 -512 0
v -896 -528 0
v -912 -528 0
v -912 -512 0
v -896 -512 0
v -912 -528 0
v -928 -528 0
v -928 -512 0
v -912 -512 0
v -928 -528 0
v -944 -528 0
v -944 -512 0
v -928 -512 0
v -944 -528 0
v -960 -528 0
v -960 -512 0
v -944 -512 0
v -960 -528 0
v -976 -528 0
v -976 -512 0
v -960 -512 0
v -976 -528 0
v -992 -528 0
v -992 -512 0
v -976 -512 0
v -992 -528 0
v -1008 -528 0
v -1008 -512 0
v -992 -512 0
v -1008 -528 0
v -1024 -528 0
v -1024 -512 0
v -1008 -512 0
v -1024 -528 0
v -1040 -528 0
v -1040 -512 0
v -1024 -512 0
v -1040 -528 0
v -1056 -528 0
v -1056 -512 0
v -1040 -512 0
v -1056 -528 0
v -1072 -528 0
v -1072 -512 0
v -1056 -512 0
v -704 -544 0
v -720 -544 0
v -720 -528 0
v -704 -528 0
v -720 -544 0
v -736 -544 0
v -736 -528 0
v -720 -528 0
v -736 -544 0
v -752 -544 0
v -752 -528 0
v -736 -528 0
v -752 -544 0
v -768 -544 0
v -768 -528 0
v -752 -528 0
v -768 -544 0
v -784 -544 0
v -784 -528 0
v -768 -528 0
v -784 -544 0
v -800 -544 0
v -800 -528 0
v -784 -528 0
v -800 -544 0
v -816 -544 0
v -816 -528 0
v -800 -528 0
v -816 -544 0
v -832 -544 0
v -832 -528 0
v -816 -528 0
v -832 -544 0
v -848 -544 0
v -848 -528 0
v -832 -528 0
v -848 -544 0
v -864 -544 0
v -864 -528 0
v -848 -528 0
v -864 -544 0
v -880 -544 0
v -880 -528 0
v -864 -528 0
v -880 -544 0
v -896 -544 0
v -896 -528 0
v -880 -528 0
v -896 -544 0
v -912 -544 0
v -912 -528 0
v -896 -528 0
v -912 -544 0
v -928 -544 0
v -928 -528 0
v -912 -528 0
v -928 -544 0
v -944 -544 0
v -944 -528 0
v -928 -528 0
v -944 -544 0
v -960 -544 0
v -960 -528 0
v -944 -528 0
v -960 -544 0
v -976 -544 0
v -976 -528 0
v -960 -528 0
v -1008 -544 0
v -1024 -544 0
v -1024 -528 0
v -1008 -528 0
v -720 -608 0
v -736 -608 0
v -736 -592 0
v -720 -592 0
v -736 -608 0
v -752 -608 0
v -752 -592 0
v -736 -592 0
v -752 -608 0
v -768 -608 0
v -768 -592 0
v -752 -592 0
v -768 -608 0
v -784 -608 0
v -784 -592 0
v -768 -592 0
v -784 -608 0
v -800 -608 0
v -800 -592 0
v -784 -592 0
v -800 -608 0
v -816 -608 0
v -816 -592 0
v -800 -592 0
v -816 -608 0
v -832 -608 0
v -832 -592 0
v -816 -592 0
v -832 -608 0
v -848 -608 0
v -848 -592 0
v -832 -592 0
v -848 -608 0
v -864 -608 0
v -864 -592 0
v -848 -592 0
v -864 -608 0
v -880 -608 0
v -880 -592 0
v -864 -592 0
v -880 -608 0
v -896 -608 0
v -896 -592 0
v -880 -592 0
v -896 -608 0
v -912 -608 0
v -912 -592 0
v -896 -592 0
v -912 -608 0
v -928 -608 0
v -928 -592 0
v -912 -592 0
v -928 -608 0
v -944 -608 0
v -944 -592 0
v -928 -592 0
v -944 -608 0
v -960 -608 0
v -960 -592 0
v -944 -592 0
v -960 -608 0
v -976 -608 0
v -976 -592 0
v -960 -592 0
v -1008 -608 0
v -1024 -608 0
v -1024 -592 0
v -1008 -592 0

# Texture cooridinates (Count = 48)
vt 0.5 0.4375
vt 0.53125 0.4375
vt 0.53125 0.5
vt 0.5 0.5
vt 0.5625 0.4375
vt 0.5625 0.5
vt 0.59375 0.4375
vt 0.59375 0.5
vt 0.625 0.4375
vt 0.625 0.5
vt 0.5 0.375
vt 0.53125 0.375
vt 0.71875 0.25
vt 0.71875 0.1875
vt 0.75 0.1875
vt 0.75 0.25
vt 0.6875 0.0625
vt 0.65625 0.0625
vt 0.65625 0
vt 0.6875 0
vt 0.46875 0
vt 0.5 0
vt 0.5 0.0625
vt 0.46875 0.0625
vt 0.59375 0.375
vt 0.625 0.375
vt 0.5 0.3125
vt 0.53125 0.3125
vt 0.65625 0.25
vt 0.65625 0.1875
vt 0.6875 0.1875
vt 0.6875 0.25
vt 0.6875 0.125
vt 0.71875 0.125
vt 0.4375 0.0625
vt 0.4375 0
vt 0.5 0.25
vt 0.53125 0.25
vt 0.53125 0
vt 0.53125 0.0625
vt 0.5625 0
vt 0.59375 0
vt 0.59375 0.0625
vt 0.5625 0.0625
vt 0.625 0
vt 0.625 0.0625
vt 0.5625 0.25
vt 0.5625 0.3125

# Normal
vn 0 0 -1

# Mesh description
g Strong-Winds_mesh_0017

# Faces
f 1/1/1 2/2/1 3/3/1 4/4/1
f 5/2/1 6/5/1 7/6/1 8/3/1
f 9/2/1 10/5/1 11/6/1 12/3/1
f 13/2/1 14/5/1 15/6/1 16/3/1
f 17/2/1 18/5/1 19/6/1 20/3/1
f 21/2/1 22/5/1 23/6/1 24/3/1
f 25/2/1 26/5/1 27/6/1 28/3/1
f 29/2/1 30/5/1 31/6/1 32/3/1
f 33/2/1 34/5/1 35/6/1 36/3/1
f 37/2/1 38/5/1 39/6/1 40/3/1
f 41/2/1 42/5/1 43/6/1 44/3/1
f 45/2/1 46/5/1 47/6/1 48/3/1
f 49/2/1 50/5/1 51/6/1 52/3/1
f 53/2/1 54/5/1 55/6/1 56/3/1
f 57/2/1 58/5/1 59/6/1 60/3/1
f 61/2/1 62/5/1 63/6/1 64/3/1
f 65/2/1 66/5/1 67/6/1 68/3/1
f 69/2/1 70/5/1 71/6/1 72/3/1
f 73/2/1 74/5/1 75/6/1 76/3/1
f 77/2/1 78/5/1 79/6/1 80/3/1
f 81/2/1 82/5/1 83/6/1 84/3/1
f 85/5/1 86/7/1 87/8/1 88/6/1
f 89/7/1 90/9/1 91/10/1 92/8/1
f 93/11/1 94/12/1 95/2/1 96/1/1
f 97/13/1 98/14/1 99/15/1 100/16/1
f 101/17/1 102/18/1 103/19/1 104/20/1
f 105/17/1 106/18/1 107/19/1 108/20/1
f 109/17/1 110/18/1 111/19/1 112/20/1
f 113/17/1 114/18/1 115/19/1 116/20/1
f 117/17/1 118/18/1 119/19/1 120/20/1
f 121/17/1 122/18/1 123/19/1 124/20/1
f 125/17/1 126/18/1 127/19/1 128/20/1
f 129/17/1 130/18/1 131/19/1 132/20/1
f 133/17/1 134/18/1 135/19/1 136/20/1
f 137/17/1 138/18/1 139/19/1 140/20/1
f 141/17/1 142/18/1 143/19/1 144/20/1
f 145/17/1 146/18/1 147/19/1 148/20/1
f 149/17/1 150/18/1 151/19/1 152/20/1
f 153/17/1 154/18/1 155/19/1 156/20/1
f 157/17/1 158/18/1 159/19/1 160/20/1
f 161/17/1 162/18/1 163/19/1 164/20/1
f 165/17/1 166/18/1 167/19/1 168/20/1
f 169/17/1 170/18/1 171/19/1 172/20/1
f 173/17/1 174/18/1 175/19/1 176/20/1
f 177/21/1 178/22/1 179/23/1 180/24/1
f 181/25/1 182/26/1 183/9/1 184/7/1
f 185/27/1 186/28/1 187/12/1 188/11/1
f 189/29/1 190/30/1 191/31/1 192/32/1
f 193/33/1 194/34/1 195/14/1 196/31/1
f 197/33/1 198/34/1 199/14/1 200/31/1
f 201/33/1 202/34/1 203/14/1 204/31/1
f 205/33/1 206/34/1 207/14/1 208/31/1
f 209/33/1 210/34/1 211/14/1 212/31/1
f 213/33/1 214/34/1 215/14/1 216/31/1
f 217/33/1 218/34/1 219/14/1 220/31/1
f 221/33/1 222/34/1 223/14/1 224/31/1
f 225/33/1 226/34/1 227/14/1 228/31/1
f 229/33/1 230/34/1 231/14/1 232/31/1
f 233/33/1 234/34/1 235/14/1 236/31/1
f 237/33/1 238/34/1 239/14/1 240/31/1
f 241/33/1 242/34/1 243/14/1 244/31/1
f 245/33/1 246/34/1 247/14/1 248/31/1
f 249/33/1 250/34/1 251/14/1 252/31/1
f 253/33/1 254/34/1 255/14/1 256/31/1
f 257/33/1 258/34/1 259/14/1 260/31/1
f 261/33/1 262/34/1 263/14/1 264/31/1
f 265/33/1 266/34/1 267/14/1 268/31/1
f 269/21/1 270/24/1 271/35/1 272/36/1
f 273/25/1 274/26/1 275/9/1 276/7/1
f 277/1/1 278/2/1 279/3/1 280/4/1
f 281/27/1 282/28/1 283/12/1 284/11/1
f 285/21/1 286/24/1 287/35/1 288/36/1
f 289/25/1 290/26/1 291/9/1 292/7/1
f 293/11/1 294/12/1 295/2/1 296/1/1
f 297/11/1 298/12/1 299/2/1 300/1/1
f 301/21/1 302/24/1 303/35/1 304/36/1
f 305/11/1 306/12/1 307/2/1 308/1/1
f 309/27/1 310/28/1 311/12/1 312/11/1
f 313/21/1 314/24/1 315/35/1 316/36/1
f 317/11/1 318/12/1 319/2/1 320/1/1
f 321/37/1 322/38/1 323/28/1 324/27/1
f 325/21/1 326/24/1 327/35/1 328/36/1
f 329/11/1 330/12/1 331/2/1 332/1/1
f 333/11/1 334/12/1 335/2/1 336/1/1
f 337/27/1 338/28/1 339/12/1 340/11/1
f 341/22/1 342/39/1 343/40/1 344/23/1
f 345/41/1 346/42/1 347/43/1 348/44/1
f 349/41/1 350/42/1 351/43/1 352/44/1
f 353/41/1 354/42/1 355/43/1 356/44/1
f 357/41/1 358/42/1 359/43/1 360/44/1
f 361/41/1 362/42/1 363/43/1 364/44/1
f 365/41/1 366/42/1 367/43/1 368/44/1
f 369/41/1 370/42/1 371/43/1 372/44/1
f 373/41/1 374/42/1 375/43/1 376/44/1
f 377/41/1 378/42/1 379/43/1 380/44/1
f 381/41/1 382/42/1 383/43/1 384/44/1
f 385/41/1 386/42/1 387/43/1 388/44/1
f 389/41/1 390/42/1 391/43/1 392/44/1
f 393/41/1 394/42/1 395/43/1 396/44/1
f 397/41/1 398/42/1 399/43/1 400/44/1
f 401/41/1 402/42/1 403/43/1 404/44/1
f 405/41/1 406/42/1 407/43/1 408/44/1
f 409/41/1 410/42/1 411/43/1 412/44/1
f 413/41/1 414/42/1 415/43/1 416/44/1
f 417/41/1 418/42/1 419/43/1 420/44/1
f 421/41/1 422/42/1 423/43/1 424/44/1
f 425/42/1 426/45/1 427/46/1 428/43/1
f 429/37/1 430/38/1 431/28/1 432/27/1
f 433/38/1 434/47/1 435/48/1 436/28/1
f 437/38/1 438/47/1 439/48/1 440/28/1
f 441/38/1 442/47/1 443/48/1 444/28/1
f 445/38/1 446/47/1 447/48/1 448/28/1
f 449/38/1 450/47/1 451/48/1 452/28/1
f 453/38/1 454/47/1 455/48/1 456/28/1
f 457/38/1 458/47/1 459/48/1 460/28/1
f 461/38/1 462/47/1 463/48/1 464/28/1
f 465/38/1 466/47/1 467/48/1 468/28/1
f 469/38/1 470/47/1 471/48/1 472/28/1
f 473/38/1 474/47/1 475/48/1 476/28/1
f 477/38/1 478/47/1 479/48/1 480/28/1
f 481/38/1 482/47/1 483/48/1 484/28/1
f 485/38/1 486/47/1 487/48/1 488/28/1
f 489/38/1 490/47/1 491/48/1 492/28/1
f 493/38/1 494/47/1 495/48/1 496/28/1
f 497/38/1 498/47/1 499/48/1 500/28/1
f 501/22/1 502/39/1 503/40/1 504/23/1
f 505/39/1 506/41/1 507/44/1 508/40/1
f 509/39/1 510/41/1 511/44/1 512/40/1
f 513/39/1 514/41/1 515/44/1 516/40/1
f 517/39/1 518/41/1 519/44/1 520/40/1
f 521/39/1 522/41/1 523/44/1 524/40/1
f 525/39/1 526/41/1 527/44/1 528/40/1
f 529/39/1 530/41/1 531/44/1 532/40/1
f 533/39/1 534/41/1 535/44/1 536/40/1
f 537/39/1 538/41/1 539/44/1 540/40/1
f 541/39/1 542/41/1 543/44/1 544/40/1
f 545/39/1 546/41/1 547/44/1 548/40/1
f 549/39/1 550/41/1 551/44/1 552/40/1
f 553/39/1 554/41/1 555/44/1 556/40/1
f 557/39/1 558/41/1 559/44/1 560/40/1
f 561/42/1 562/45/1 563/46/1 564/43/1
f 565/22/1 566/39/1 567/40/1 568/23/1

