# Tiled2Unity generated file. Do not modify by hand.
# Wavefront file for 'Strong-Winds_mesh_0015.obj'

# Vertices (Count = 552)
v -720 -384 0
v -736 -384 0
v -736 -368 0
v -720 -368 0
v -736 -384 0
v -752 -384 0
v -752 -368 0
v -736 -368 0
v -752 -384 0
v -768 -384 0
v -768 -368 0
v -752 -368 0
v -768 -384 0
v -784 -384 0
v -784 -368 0
v -768 -368 0
v -784 -384 0
v -800 -384 0
v -800 -368 0
v -784 -368 0
v -800 -384 0
v -816 -384 0
v -816 -368 0
v -800 -368 0
v -816 -384 0
v -832 -384 0
v -832 -368 0
v -816 -368 0
v -832 -384 0
v -848 -384 0
v -848 -368 0
v -832 -368 0
v -848 -384 0
v -864 -384 0
v -864 -368 0
v -848 -368 0
v -864 -384 0
v -880 -384 0
v -880 -368 0
v -864 -368 0
v -880 -384 0
v -896 -384 0
v -896 -368 0
v -880 -368 0
v -896 -384 0
v -912 -384 0
v -912 -368 0
v -896 -368 0
v -912 -384 0
v -928 -384 0
v -928 -368 0
v -912 -368 0
v -928 -384 0
v -944 -384 0
v -944 -368 0
v -928 -368 0
v -944 -384 0
v -960 -384 0
v -960 -368 0
v -944 -368 0
v -960 -384 0
v -976 -384 0
v -976 -368 0
v -960 -368 0
v -976 -384 0
v -992 -384 0
v -992 -368 0
v -976 -368 0
v -992 -384 0
v -1008 -384 0
v -1008 -368 0
v -992 -368 0
v -1008 -384 0
v -1024 -384 0
v -1024 -368 0
v -1008 -368 0
v -1024 -384 0
v -1040 -384 0
v -1040 -368 0
v -1024 -368 0
v -1040 -384 0
v -1056 -384 0
v -1056 -368 0
v -1040 -368 0
v -1056 -384 0
v -1072 -384 0
v -1072 -368 0
v -1056 -368 0
v -1072 -384 0
v -1088 -384 0
v -1088 -368 0
v -1072 -368 0
v -720 -400 0
v -736 -400 0
v -736 -384 0
v -720 -384 0
v -736 -400 0
v -752 -400 0
v -752 -384 0
v -736 -384 0
v -752 -400 0
v -768 -400 0
v -768 -384 0
v -752 -384 0
v -768 -400 0
v -784 -400 0
v -784 -384 0
v -768 -384 0
v -784 -400 0
v -800 -400 0
v -800 -384 0
v -784 -384 0
v -800 -400 0
v -816 -400 0
v -816 -384 0
v -800 -384 0
v -816 -400 0
v -832 -400 0
v -832 -384 0
v -816 -384 0
v -832 -400 0
v -848 -400 0
v -848 -384 0
v -832 -384 0
v -848 -400 0
v -864 -400 0
v -864 -384 0
v -848 -384 0
v -864 -400 0
v -880 -400 0
v -880 -384 0
v -864 -384 0
v -880 -400 0
v -896 -400 0
v -896 -384 0
v -880 -384 0
v -896 -400 0
v -912 -400 0
v -912 -384 0
v -896 -384 0
v -912 -400 0
v -928 -400 0
v -928 -384 0
v -912 -384 0
v -928 -400 0
v -944 -400 0
v -944 -384 0
v -928 -384 0
v -944 -400 0
v -960 -400 0
v -960 -384 0
v -944 -384 0
v -960 -400 0
v -976 -400 0
v -976 -384 0
v -960 -384 0
v -976 -400 0
v -992 -400 0
v -992 -384 0
v -976 -384 0
v -992 -400 0
v -1008 -400 0
v -1008 -384 0
v -992 -384 0
v -1008 -400 0
v -1024 -400 0
v -1024 -384 0
v -1008 -384 0
v -1024 -400 0
v -1040 -400 0
v -1040 -384 0
v -1024 -384 0
v -1040 -400 0
v -1056 -400 0
v -1056 -384 0
v -1040 -384 0
v -1056 -400 0
v -1072 -400 0
v -1072 -384 0
v -1056 -384 0
v -1072 -400 0
v -1088 -400 0
v -1088 -384 0
v -1072 -384 0
v -720 -416 0
v -736 -416 0
v -736 -400 0
v -720 -400 0
v -736 -416 0
v -752 -416 0
v -752 -400 0
v -736 -400 0
v -752 -416 0
v -768 -416 0
v -768 -400 0
v -752 -400 0
v -768 -416 0
v -784 -416 0
v -784 -400 0
v -768 -400 0
v -784 -416 0
v -800 -416 0
v -800 -400 0
v -784 -400 0
v -800 -416 0
v -816 -416 0
v -816 -400 0
v -800 -400 0
v -816 -416 0
v -832 -416 0
v -832 -400 0
v -816 -400 0
v -832 -416 0
v -848 -416 0
v -848 -400 0
v -832 -400 0
v -848 -416 0
v -864 -416 0
v -864 -400 0
v -848 -400 0
v -864 -416 0
v -880 -416 0
v -880 -400 0
v -864 -400 0
v -880 -416 0
v -896 -416 0
v -896 -400 0
v -880 -400 0
v -896 -416 0
v -912 -416 0
v -912 -400 0
v -896 -400 0
v -912 -416 0
v -928 -416 0
v -928 -400 0
v -912 -400 0
v -928 -416 0
v -944 -416 0
v -944 -400 0
v -928 -400 0
v -944 -416 0
v -960 -416 0
v -960 -400 0
v -944 -400 0
v -960 -416 0
v -976 -416 0
v -976 -400 0
v -960 -400 0
v -976 -416 0
v -992 -416 0
v -992 -400 0
v -976 -400 0
v -992 -416 0
v -1008 -416 0
v -1008 -400 0
v -992 -400 0
v -1008 -416 0
v -1024 -416 0
v -1024 -400 0
v -1008 -400 0
v -1024 -416 0
v -1040 -416 0
v -1040 -400 0
v -1024 -400 0
v -1040 -416 0
v -1056 -416 0
v -1056 -400 0
v -1040 -400 0
v -1056 -416 0
v -1072 -416 0
v -1072 -400 0
v -1056 -400 0
v -1072 -416 0
v -1088 -416 0
v -1088 -400 0
v -1072 -400 0
v -704 -432 0
v -720 -432 0
v -720 -416 0
v -704 -416 0
v -720 -432 0
v -736 -432 0
v -736 -416 0
v -720 -416 0
v -1072 -432 0
v -1088 -432 0
v -1088 -416 0
v -1072 -416 0
v -704 -448 0
v -720 -448 0
v -720 -432 0
v -704 -432 0
v -720 -448 0
v -736 -448 0
v -736 -432 0
v -720 -432 0
v -704 -464 0
v -720 -464 0
v -720 -448 0
v -704 -448 0
v -720 -464 0
v -736 -464 0
v -736 -448 0
v -720 -448 0
v -704 -480 0
v -720 -480 0
v -720 -464 0
v -704 -464 0
v -720 -480 0
v -736 -480 0
v -736 -464 0
v -720 -464 0
v -704 -496 0
v -720 -496 0
v -720 -480 0
v -704 -480 0
v -704 -512 0
v -720 -512 0
v -720 -496 0
v -704 -496 0
v -704 -528 0
v -720 -528 0
v -720 -512 0
v -704 -512 0
v -720 -528 0
v -736 -528 0
v -736 -512 0
v -720 -512 0
v -736 -528 0
v -752 -528 0
v -752 -512 0
v -736 -512 0
v -752 -528 0
v -768 -528 0
v -768 -512 0
v -752 -512 0
v -768 -528 0
v -784 -528 0
v -784 -512 0
v -768 -512 0
v -784 -528 0
v -800 -528 0
v -800 -512 0
v -784 -512 0
v -800 -528 0
v -816 -528 0
v -816 -512 0
v -800 -512 0
v -816 -528 0
v -832 -528 0
v -832 -512 0
v -816 -512 0
v -832 -528 0
v -848 -528 0
v -848 -512 0
v -832 -512 0
v -848 -528 0
v -864 -528 0
v -864 -512 0
v -848 -512 0
v -864 -528 0
v -880 -528 0
v -880 -512 0
v -864 -512 0
v -880 -528 0
v -896 -528 0
v -896 -512 0
v -880 -512 0
v -896 -528 0
v -912 -528 0
v -912 -512 0
v -896 -512 0
v -912 -528 0
v -928 -528 0
v -928 -512 0
v -912 -512 0
v -928 -528 0
v -944 -528 0
v -944 -512 0
v -928 -512 0
v -944 -528 0
v -960 -528 0
v -960 -512 0
v -944 -512 0
v -960 -528 0
v -976 -528 0
v -976 -512 0
v -960 -512 0
v -976 -528 0
v -992 -528 0
v -992 -512 0
v -976 -512 0
v -992 -528 0
v -1008 -528 0
v -1008 -512 0
v -992 -512 0
v -1008 -528 0
v -1024 -528 0
v -1024 -512 0
v -1008 -512 0
v -1024 -528 0
v -1040 -528 0
v -1040 -512 0
v -1024 -512 0
v -1040 -528 0
v -1056 -528 0
v -1056 -512 0
v -1040 -512 0
v -1056 -528 0
v -1072 -528 0
v -1072 -512 0
v -1056 -512 0
v -704 -544 0
v -720 -544 0
v -720 -528 0
v -704 -528 0
v -720 -544 0
v -736 -544 0
v -736 -528 0
v -720 -528 0
v -736 -544 0
v -752 -544 0
v -752 -528 0
v -736 -528 0
v -752 -544 0
v -768 -544 0
v -768 -528 0
v -752 -528 0
v -768 -544 0
v -784 -544 0
v -784 -528 0
v -768 -528 0
v -784 -544 0
v -800 -544 0
v -800 -528 0
v -784 -528 0
v -800 -544 0
v -816 -544 0
v -816 -528 0
v -800 -528 0
v -816 -544 0
v -832 -544 0
v -832 -528 0
v -816 -528 0
v -832 -544 0
v -848 -544 0
v -848 -528 0
v -832 -528 0
v -848 -544 0
v -864 -544 0
v -864 -528 0
v -848 -528 0
v -864 -544 0
v -880 -544 0
v -880 -528 0
v -864 -528 0
v -880 -544 0
v -896 -544 0
v -896 -528 0
v -880 -528 0
v -896 -544 0
v -912 -544 0
v -912 -528 0
v -896 -528 0
v -912 -544 0
v -928 -544 0
v -928 -528 0
v -912 -528 0
v -928 -544 0
v -944 -544 0
v -944 -528 0
v -928 -528 0
v -944 -544 0
v -960 -544 0
v -960 -528 0
v -944 -528 0
v -960 -544 0
v -976 -544 0
v -976 -528 0
v -960 -528 0
v -1008 -544 0
v -1024 -544 0
v -1024 -528 0
v -1008 -528 0
v -720 -608 0
v -736 -608 0
v -736 -592 0
v -720 -592 0
v -736 -608 0
v -752 -608 0
v -752 -592 0
v -736 -592 0
v -752 -608 0
v -768 -608 0
v -768 -592 0
v -752 -592 0
v -768 -608 0
v -784 -608 0
v -784 -592 0
v -768 -592 0
v -784 -608 0
v -800 -608 0
v -800 -592 0
v -784 -592 0
v -800 -608 0
v -816 -608 0
v -816 -592 0
v -800 -592 0
v -816 -608 0
v -832 -608 0
v -832 -592 0
v -816 -592 0
v -832 -608 0
v -848 -608 0
v -848 -592 0
v -832 -592 0
v -848 -608 0
v -864 -608 0
v -864 -592 0
v -848 -592 0
v -864 -608 0
v -880 -608 0
v -880 -592 0
v -864 -592 0
v -880 -608 0
v -896 -608 0
v -896 -592 0
v -880 -592 0
v -896 -608 0
v -912 -608 0
v -912 -592 0
v -896 -592 0
v -912 -608 0
v -928 -608 0
v -928 -592 0
v -912 -592 0
v -928 -608 0
v -944 -608 0
v -944 -592 0
v -928 -592 0
v -944 -608 0
v -960 -608 0
v -960 -592 0
v -944 -592 0
v -960 -608 0
v -976 -608 0
v -976 -592 0
v -960 -592 0
v -1008 -608 0
v -1024 -608 0
v -1024 -592 0
v -1008 -592 0

# Texture cooridinates (Count = 45)
vt 0.5 0.4375
vt 0.53125 0.4375
vt 0.53125 0.5
vt 0.5 0.5
vt 0.5625 0.4375
vt 0.5625 0.5
vt 0.59375 0.4375
vt 0.59375 0.5
vt 0.625 0.4375
vt 0.625 0.5
vt 0.5 0.375
vt 0.53125 0.375
vt 0.875 0.6875
vt 0.90625 0.6875
vt 0.90625 0.75
vt 0.875 0.75
vt 0.9375 0.6875
vt 0.9375 0.75
vt 0.96875 0.6875
vt 1 0.6875
vt 1 0.75
vt 0.96875 0.75
vt 0.59375 0.375
vt 0.625 0.375
vt 0.5 0.3125
vt 0.53125 0.3125
vt 0.875 0.625
vt 0.90625 0.625
vt 0.9375 0.625
vt 0.96875 0.625
vt 1 0.625
vt 0.5 0.25
vt 0.53125 0.25
vt 0.5 0
vt 0.53125 0
vt 0.53125 0.0625
vt 0.5 0.0625
vt 0.5625 0
vt 0.59375 0
vt 0.59375 0.0625
vt 0.5625 0.0625
vt 0.625 0
vt 0.625 0.0625
vt 0.5625 0.25
vt 0.5625 0.3125

# Normal
vn 0 0 -1

# Mesh description
g Strong-Winds_mesh_0015

# Faces
f 1/1/1 2/2/1 3/3/1 4/4/1
f 5/2/1 6/5/1 7/6/1 8/3/1
f 9/2/1 10/5/1 11/6/1 12/3/1
f 13/2/1 14/5/1 15/6/1 16/3/1
f 17/2/1 18/5/1 19/6/1 20/3/1
f 21/2/1 22/5/1 23/6/1 24/3/1
f 25/2/1 26/5/1 27/6/1 28/3/1
f 29/2/1 30/5/1 31/6/1 32/3/1
f 33/2/1 34/5/1 35/6/1 36/3/1
f 37/2/1 38/5/1 39/6/1 40/3/1
f 41/2/1 42/5/1 43/6/1 44/3/1
f 45/2/1 46/5/1 47/6/1 48/3/1
f 49/2/1 50/5/1 51/6/1 52/3/1
f 53/2/1 54/5/1 55/6/1 56/3/1
f 57/2/1 58/5/1 59/6/1 60/3/1
f 61/2/1 62/5/1 63/6/1 64/3/1
f 65/2/1 66/5/1 67/6/1 68/3/1
f 69/2/1 70/5/1 71/6/1 72/3/1
f 73/2/1 74/5/1 75/6/1 76/3/1
f 77/2/1 78/5/1 79/6/1 80/3/1
f 81/2/1 82/5/1 83/6/1 84/3/1
f 85/5/1 86/7/1 87/8/1 88/6/1
f 89/7/1 90/9/1 91/10/1 92/8/1
f 93/11/1 94/12/1 95/2/1 96/1/1
f 97/13/1 98/14/1 99/15/1 100/16/1
f 101/14/1 102/17/1 103/18/1 104/15/1
f 105/14/1 106/17/1 107/18/1 108/15/1
f 109/14/1 110/17/1 111/18/1 112/15/1
f 113/14/1 114/17/1 115/18/1 116/15/1
f 117/14/1 118/17/1 119/18/1 120/15/1
f 121/14/1 122/17/1 123/18/1 124/15/1
f 125/14/1 126/17/1 127/18/1 128/15/1
f 129/14/1 130/17/1 131/18/1 132/15/1
f 133/14/1 134/17/1 135/18/1 136/15/1
f 137/14/1 138/17/1 139/18/1 140/15/1
f 141/14/1 142/17/1 143/18/1 144/15/1
f 145/14/1 146/17/1 147/18/1 148/15/1
f 149/14/1 150/17/1 151/18/1 152/15/1
f 153/14/1 154/17/1 155/18/1 156/15/1
f 157/14/1 158/17/1 159/18/1 160/15/1
f 161/14/1 162/17/1 163/18/1 164/15/1
f 165/14/1 166/17/1 167/18/1 168/15/1
f 169/14/1 170/17/1 171/18/1 172/15/1
f 173/14/1 174/17/1 175/18/1 176/15/1
f 177/19/1 178/20/1 179/21/1 180/22/1
f 181/23/1 182/24/1 183/9/1 184/7/1
f 185/25/1 186/26/1 187/12/1 188/11/1
f 189/27/1 190/28/1 191/14/1 192/13/1
f 193/28/1 194/29/1 195/17/1 196/14/1
f 197/28/1 198/29/1 199/17/1 200/14/1
f 201/28/1 202/29/1 203/17/1 204/14/1
f 205/28/1 206/29/1 207/17/1 208/14/1
f 209/28/1 210/29/1 211/17/1 212/14/1
f 213/28/1 214/29/1 215/17/1 216/14/1
f 217/28/1 218/29/1 219/17/1 220/14/1
f 221/28/1 222/29/1 223/17/1 224/14/1
f 225/28/1 226/29/1 227/17/1 228/14/1
f 229/28/1 230/29/1 231/17/1 232/14/1
f 233/28/1 234/29/1 235/17/1 236/14/1
f 237/28/1 238/29/1 239/17/1 240/14/1
f 241/28/1 242/29/1 243/17/1 244/14/1
f 245/28/1 246/29/1 247/17/1 248/14/1
f 249/28/1 250/29/1 251/17/1 252/14/1
f 253/28/1 254/29/1 255/17/1 256/14/1
f 257/28/1 258/29/1 259/17/1 260/14/1
f 261/28/1 262/29/1 263/17/1 264/14/1
f 265/28/1 266/29/1 267/17/1 268/14/1
f 269/30/1 270/31/1 271/20/1 272/19/1
f 273/23/1 274/24/1 275/9/1 276/7/1
f 277/1/1 278/2/1 279/3/1 280/4/1
f 281/25/1 282/26/1 283/12/1 284/11/1
f 285/23/1 286/24/1 287/9/1 288/7/1
f 289/11/1 290/12/1 291/2/1 292/1/1
f 293/11/1 294/12/1 295/2/1 296/1/1
f 297/11/1 298/12/1 299/2/1 300/1/1
f 301/25/1 302/26/1 303/12/1 304/11/1
f 305/11/1 306/12/1 307/2/1 308/1/1
f 309/32/1 310/33/1 311/26/1 312/25/1
f 313/11/1 314/12/1 315/2/1 316/1/1
f 317/11/1 318/12/1 319/2/1 320/1/1
f 321/25/1 322/26/1 323/12/1 324/11/1
f 325/34/1 326/35/1 327/36/1 328/37/1
f 329/38/1 330/39/1 331/40/1 332/41/1
f 333/38/1 334/39/1 335/40/1 336/41/1
f 337/38/1 338/39/1 339/40/1 340/41/1
f 341/38/1 342/39/1 343/40/1 344/41/1
f 345/38/1 346/39/1 347/40/1 348/41/1
f 349/38/1 350/39/1 351/40/1 352/41/1
f 353/38/1 354/39/1 355/40/1 356/41/1
f 357/38/1 358/39/1 359/40/1 360/41/1
f 361/38/1 362/39/1 363/40/1 364/41/1
f 365/38/1 366/39/1 367/40/1 368/41/1
f 369/38/1 370/39/1 371/40/1 372/41/1
f 373/38/1 374/39/1 375/40/1 376/41/1
f 377/38/1 378/39/1 379/40/1 380/41/1
f 381/38/1 382/39/1 383/40/1 384/41/1
f 385/38/1 386/39/1 387/40/1 388/41/1
f 389/38/1 390/39/1 391/40/1 392/41/1
f 393/38/1 394/39/1 395/40/1 396/41/1
f 397/38/1 398/39/1 399/40/1 400/41/1
f 401/38/1 402/39/1 403/40/1 404/41/1
f 405/38/1 406/39/1 407/40/1 408/41/1
f 409/39/1 410/42/1 411/43/1 412/40/1
f 413/32/1 414/33/1 415/26/1 416/25/1
f 417/33/1 418/44/1 419/45/1 420/26/1
f 421/33/1 422/44/1 423/45/1 424/26/1
f 425/33/1 426/44/1 427/45/1 428/26/1
f 429/33/1 430/44/1 431/45/1 432/26/1
f 433/33/1 434/44/1 435/45/1 436/26/1
f 437/33/1 438/44/1 439/45/1 440/26/1
f 441/33/1 442/44/1 443/45/1 444/26/1
f 445/33/1 446/44/1 447/45/1 448/26/1
f 449/33/1 450/44/1 451/45/1 452/26/1
f 453/33/1 454/44/1 455/45/1 456/26/1
f 457/33/1 458/44/1 459/45/1 460/26/1
f 461/33/1 462/44/1 463/45/1 464/26/1
f 465/33/1 466/44/1 467/45/1 468/26/1
f 469/33/1 470/44/1 471/45/1 472/26/1
f 473/33/1 474/44/1 475/45/1 476/26/1
f 477/33/1 478/44/1 479/45/1 480/26/1
f 481/33/1 482/44/1 483/45/1 484/26/1
f 485/34/1 486/35/1 487/36/1 488/37/1
f 489/35/1 490/38/1 491/41/1 492/36/1
f 493/35/1 494/38/1 495/41/1 496/36/1
f 497/35/1 498/38/1 499/41/1 500/36/1
f 501/35/1 502/38/1 503/41/1 504/36/1
f 505/35/1 506/38/1 507/41/1 508/36/1
f 509/35/1 510/38/1 511/41/1 512/36/1
f 513/35/1 514/38/1 515/41/1 516/36/1
f 517/35/1 518/38/1 519/41/1 520/36/1
f 521/35/1 522/38/1 523/41/1 524/36/1
f 525/35/1 526/38/1 527/41/1 528/36/1
f 529/35/1 530/38/1 531/41/1 532/36/1
f 533/35/1 534/38/1 535/41/1 536/36/1
f 537/35/1 538/38/1 539/41/1 540/36/1
f 541/35/1 542/38/1 543/41/1 544/36/1
f 545/39/1 546/42/1 547/43/1 548/40/1
f 549/34/1 550/35/1 551/36/1 552/37/1

