# Tiled2Unity generated file. Do not modify by hand.
# Wavefront file for 'Strong-Winds_mesh_0003.obj'

# Vertices (Count = 720)
v -448 -448 0
v -464 -448 0
v -464 -432 0
v -448 -432 0
v -1376 -448 0
v -1392 -448 0
v -1392 -432 0
v -1376 -432 0
v -1392 -448 0
v -1408 -448 0
v -1408 -432 0
v -1392 -432 0
v -1408 -448 0
v -1424 -448 0
v -1424 -432 0
v -1408 -432 0
v -64 -464 0
v -80 -464 0
v -80 -448 0
v -64 -448 0
v -80 -464 0
v -96 -464 0
v -96 -448 0
v -80 -448 0
v -96 -464 0
v -112 -464 0
v -112 -448 0
v -96 -448 0
v -656 -464 0
v -672 -464 0
v -672 -448 0
v -656 -448 0
v -1376 -464 0
v -1392 -464 0
v -1392 -448 0
v -1376 -448 0
v -1392 -464 0
v -1408 -464 0
v -1408 -448 0
v -1392 -448 0
v -1408 -464 0
v -1424 -464 0
v -1424 -448 0
v -1408 -448 0
v -64 -480 0
v -80 -480 0
v -80 -464 0
v -64 -464 0
v -80 -480 0
v -96 -480 0
v -96 -464 0
v -80 -464 0
v -96 -480 0
v -112 -480 0
v -112 -464 0
v -96 -464 0
v -1520 -496 0
v -1536 -496 0
v -1536 -480 0
v -1520 -480 0
v -1536 -496 0
v -1552 -496 0
v -1552 -480 0
v -1536 -480 0
v -1552 -496 0
v -1568 -496 0
v -1568 -480 0
v -1552 -480 0
v -336 -512 0
v -352 -512 0
v -352 -496 0
v -336 -496 0
v -352 -512 0
v -368 -512 0
v -368 -496 0
v -352 -496 0
v -368 -512 0
v -384 -512 0
v -384 -496 0
v -368 -496 0
v -1520 -512 0
v -1536 -512 0
v -1536 -496 0
v -1520 -496 0
v -1536 -512 0
v -1552 -512 0
v -1552 -496 0
v -1536 -496 0
v -1552 -512 0
v -1568 -512 0
v -1568 -496 0
v -1552 -496 0
v -336 -528 0
v -352 -528 0
v -352 -512 0
v -336 -512 0
v -352 -528 0
v -368 -528 0
v -368 -512 0
v -352 -512 0
v -368 -528 0
v -384 -528 0
v -384 -512 0
v -368 -512 0
v -1152 -528 0
v -1168 -528 0
v -1168 -512 0
v -1152 -512 0
v -1168 -528 0
v -1184 -528 0
v -1184 -512 0
v -1168 -512 0
v -1184 -528 0
v -1200 -528 0
v -1200 -512 0
v -1184 -512 0
v -1152 -544 0
v -1168 -544 0
v -1168 -528 0
v -1152 -528 0
v -1168 -544 0
v -1184 -544 0
v -1184 -528 0
v -1168 -528 0
v -1184 -544 0
v -1200 -544 0
v -1200 -528 0
v -1184 -528 0
v -304 -576 0
v -320 -576 0
v -320 -560 0
v -304 -560 0
v -320 -576 0
v -336 -576 0
v -336 -560 0
v -320 -560 0
v -1264 -576 0
v -1280 -576 0
v -1280 -560 0
v -1264 -560 0
v -1280 -576 0
v -1296 -576 0
v -1296 -560 0
v -1280 -560 0
v -1296 -576 0
v -1312 -576 0
v -1312 -560 0
v -1296 -560 0
v -304 -592 0
v -320 -592 0
v -320 -576 0
v -304 -576 0
v -320 -592 0
v -336 -592 0
v -336 -576 0
v -320 -576 0
v -1264 -592 0
v -1280 -592 0
v -1280 -576 0
v -1264 -576 0
v -1280 -592 0
v -1296 -592 0
v -1296 -576 0
v -1280 -576 0
v -1296 -592 0
v -1312 -592 0
v -1312 -576 0
v -1296 -576 0
v -1264 -608 0
v -1280 -608 0
v -1280 -592 0
v -1264 -592 0
v -1280 -608 0
v -1296 -608 0
v -1296 -592 0
v -1280 -592 0
v -1296 -608 0
v -1312 -608 0
v -1312 -592 0
v -1296 -592 0
v -1440 -608 0
v -1456 -608 0
v -1456 -592 0
v -1440 -592 0
v -1456 -608 0
v -1472 -608 0
v -1472 -592 0
v -1456 -592 0
v -1472 -608 0
v -1488 -608 0
v -1488 -592 0
v -1472 -592 0
v -1440 -624 0
v -1456 -624 0
v -1456 -608 0
v -1440 -608 0
v -1456 -624 0
v -1472 -624 0
v -1472 -608 0
v -1456 -608 0
v -1472 -624 0
v -1488 -624 0
v -1488 -608 0
v -1472 -608 0
v -128 -640 0
v -144 -640 0
v -144 -624 0
v -128 -624 0
v -144 -640 0
v -160 -640 0
v -160 -624 0
v -144 -624 0
v -160 -640 0
v -176 -640 0
v -176 -624 0
v -160 -624 0
v -128 -656 0
v -144 -656 0
v -144 -640 0
v -128 -640 0
v -144 -656 0
v -160 -656 0
v -160 -640 0
v -144 -640 0
v -160 -656 0
v -176 -656 0
v -176 -640 0
v -160 -640 0
v -816 -976 0
v -832 -976 0
v -832 -960 0
v -816 -960 0
v -832 -976 0
v -848 -976 0
v -848 -960 0
v -832 -960 0
v -848 -976 0
v -864 -976 0
v -864 -960 0
v -848 -960 0
v -992 -976 0
v -1008 -976 0
v -1008 -960 0
v -992 -960 0
v -1008 -976 0
v -1024 -976 0
v -1024 -960 0
v -1008 -960 0
v -1024 -976 0
v -1040 -976 0
v -1040 -960 0
v -1024 -960 0
v -1168 -976 0
v -1184 -976 0
v -1184 -960 0
v -1168 -960 0
v -1184 -976 0
v -1200 -976 0
v -1200 -960 0
v -1184 -960 0
v -1200 -976 0
v -1216 -976 0
v -1216 -960 0
v -1200 -960 0
v -416 -992 0
v -432 -992 0
v -432 -976 0
v -416 -976 0
v -432 -992 0
v -448 -992 0
v -448 -976 0
v -432 -976 0
v -448 -992 0
v -464 -992 0
v -464 -976 0
v -448 -976 0
v -816 -992 0
v -832 -992 0
v -832 -976 0
v -816 -976 0
v -832 -992 0
v -848 -992 0
v -848 -976 0
v -832 -976 0
v -848 -992 0
v -864 -992 0
v -864 -976 0
v -848 -976 0
v -992 -992 0
v -1008 -992 0
v -1008 -976 0
v -992 -976 0
v -1008 -992 0
v -1024 -992 0
v -1024 -976 0
v -1008 -976 0
v -1024 -992 0
v -1040 -992 0
v -1040 -976 0
v -1024 -976 0
v -1168 -992 0
v -1184 -992 0
v -1184 -976 0
v -1168 -976 0
v -1184 -992 0
v -1200 -992 0
v -1200 -976 0
v -1184 -976 0
v -1200 -992 0
v -1216 -992 0
v -1216 -976 0
v -1200 -976 0
v -1392 -992 0
v -1408 -992 0
v -1408 -976 0
v -1392 -976 0
v -1408 -992 0
v -1424 -992 0
v -1424 -976 0
v -1408 -976 0
v -1424 -992 0
v -1440 -992 0
v -1440 -976 0
v -1424 -976 0
v -416 -1008 0
v -432 -1008 0
v -432 -992 0
v -416 -992 0
v -432 -1008 0
v -448 -1008 0
v -448 -992 0
v -432 -992 0
v -448 -1008 0
v -464 -1008 0
v -464 -992 0
v -448 -992 0
v -1392 -1008 0
v -1408 -1008 0
v -1408 -992 0
v -1392 -992 0
v -1408 -1008 0
v -1424 -1008 0
v -1424 -992 0
v -1408 -992 0
v -1424 -1008 0
v -1440 -1008 0
v -1440 -992 0
v -1424 -992 0
v -1024 -1024 0
v -1040 -1024 0
v -1040 -1008 0
v -1024 -1008 0
v -1040 -1024 0
v -1056 -1024 0
v -1056 -1008 0
v -1040 -1008 0
v -1024 -1040 0
v -1040 -1040 0
v -1040 -1024 0
v -1024 -1024 0
v -1040 -1040 0
v -1056 -1040 0
v -1056 -1024 0
v -1040 -1024 0
v -240 -1056 0
v -256 -1056 0
v -256 -1040 0
v -240 -1040 0
v -256 -1056 0
v -272 -1056 0
v -272 -1040 0
v -256 -1040 0
v -272 -1056 0
v -288 -1056 0
v -288 -1040 0
v -272 -1040 0
v -848 -1056 0
v -864 -1056 0
v -864 -1040 0
v -848 -1040 0
v -864 -1056 0
v -880 -1056 0
v -880 -1040 0
v -864 -1040 0
v -240 -1072 0
v -256 -1072 0
v -256 -1056 0
v -240 -1056 0
v -256 -1072 0
v -272 -1072 0
v -272 -1056 0
v -256 -1056 0
v -272 -1072 0
v -288 -1072 0
v -288 -1056 0
v -272 -1056 0
v -544 -1072 0
v -560 -1072 0
v -560 -1056 0
v -544 -1056 0
v -704 -1072 0
v -720 -1072 0
v -720 -1056 0
v -704 -1056 0
v -720 -1072 0
v -736 -1072 0
v -736 -1056 0
v -720 -1056 0
v -736 -1072 0
v -752 -1072 0
v -752 -1056 0
v -736 -1056 0
v -848 -1072 0
v -864 -1072 0
v -864 -1056 0
v -848 -1056 0
v -864 -1072 0
v -880 -1072 0
v -880 -1056 0
v -864 -1056 0
v -960 -1072 0
v -976 -1072 0
v -976 -1056 0
v -960 -1056 0
v -976 -1072 0
v -992 -1072 0
v -992 -1056 0
v -976 -1056 0
v -992 -1072 0
v -1008 -1072 0
v -1008 -1056 0
v -992 -1056 0
v -704 -1088 0
v -720 -1088 0
v -720 -1072 0
v -704 -1072 0
v -720 -1088 0
v -736 -1088 0
v -736 -1072 0
v -720 -1072 0
v -736 -1088 0
v -752 -1088 0
v -752 -1072 0
v -736 -1072 0
v -960 -1088 0
v -976 -1088 0
v -976 -1072 0
v -960 -1072 0
v -976 -1088 0
v -992 -1088 0
v -992 -1072 0
v -976 -1072 0
v -992 -1088 0
v -1008 -1088 0
v -1008 -1072 0
v -992 -1072 0
v -1088 -1088 0
v -1104 -1088 0
v -1104 -1072 0
v -1088 -1072 0
v -1104 -1088 0
v -1120 -1088 0
v -1120 -1072 0
v -1104 -1072 0
v -416 -1104 0
v -432 -1104 0
v -432 -1088 0
v -416 -1088 0
v -432 -1104 0
v -448 -1104 0
v -448 -1088 0
v -432 -1088 0
v -1088 -1104 0
v -1104 -1104 0
v -1104 -1088 0
v -1088 -1088 0
v -1104 -1104 0
v -1120 -1104 0
v -1120 -1088 0
v -1104 -1088 0
v -1280 -1104 0
v -1296 -1104 0
v -1296 -1088 0
v -1280 -1088 0
v -1296 -1104 0
v -1312 -1104 0
v -1312 -1088 0
v -1296 -1088 0
v -1312 -1104 0
v -1328 -1104 0
v -1328 -1088 0
v -1312 -1088 0
v -416 -1120 0
v -432 -1120 0
v -432 -1104 0
v -416 -1104 0
v -432 -1120 0
v -448 -1120 0
v -448 -1104 0
v -432 -1104 0
v -1280 -1120 0
v -1296 -1120 0
v -1296 -1104 0
v -1280 -1104 0
v -1296 -1120 0
v -1312 -1120 0
v -1312 -1104 0
v -1296 -1104 0
v -1312 -1120 0
v -1328 -1120 0
v -1328 -1104 0
v -1312 -1104 0
v -112 -1136 0
v -128 -1136 0
v -128 -1120 0
v -112 -1120 0
v -128 -1136 0
v -144 -1136 0
v -144 -1120 0
v -128 -1120 0
v -144 -1136 0
v -160 -1136 0
v -160 -1120 0
v -144 -1120 0
v -992 -1136 0
v -1008 -1136 0
v -1008 -1120 0
v -992 -1120 0
v -1008 -1136 0
v -1024 -1136 0
v -1024 -1120 0
v -1008 -1120 0
v -112 -1152 0
v -128 -1152 0
v -128 -1136 0
v -112 -1136 0
v -128 -1152 0
v -144 -1152 0
v -144 -1136 0
v -128 -1136 0
v -144 -1152 0
v -160 -1152 0
v -160 -1136 0
v -144 -1136 0
v -992 -1152 0
v -1008 -1152 0
v -1008 -1136 0
v -992 -1136 0
v -1008 -1152 0
v -1024 -1152 0
v -1024 -1136 0
v -1008 -1136 0
v -1472 -1152 0
v -1488 -1152 0
v -1488 -1136 0
v -1472 -1136 0
v -1488 -1152 0
v -1504 -1152 0
v -1504 -1136 0
v -1488 -1136 0
v -1504 -1152 0
v -1520 -1152 0
v -1520 -1136 0
v -1504 -1136 0
v -16 -1168 0
v -32 -1168 0
v -32 -1152 0
v -16 -1152 0
v -32 -1168 0
v -48 -1168 0
v -48 -1152 0
v -32 -1152 0
v -48 -1168 0
v -64 -1168 0
v -64 -1152 0
v -48 -1152 0
v -288 -1168 0
v -304 -1168 0
v -304 -1152 0
v -288 -1152 0
v -304 -1168 0
v -320 -1168 0
v -320 -1152 0
v -304 -1152 0
v -320 -1168 0
v -336 -1168 0
v -336 -1152 0
v -320 -1152 0
v -448 -1168 0
v -464 -1168 0
v -464 -1152 0
v -448 -1152 0
v -464 -1168 0
v -480 -1168 0
v -480 -1152 0
v -464 -1152 0
v -480 -1168 0
v -496 -1168 0
v -496 -1152 0
v -480 -1152 0
v -608 -1168 0
v -624 -1168 0
v -624 -1152 0
v -608 -1152 0
v -624 -1168 0
v -640 -1168 0
v -640 -1152 0
v -624 -1152 0
v -640 -1168 0
v -656 -1168 0
v -656 -1152 0
v -640 -1152 0
v -880 -1168 0
v -896 -1168 0
v -896 -1152 0
v -880 -1152 0
v -896 -1168 0
v -912 -1168 0
v -912 -1152 0
v -896 -1152 0
v -912 -1168 0
v -928 -1168 0
v -928 -1152 0
v -912 -1152 0
v -1120 -1168 0
v -1136 -1168 0
v -1136 -1152 0
v -1120 -1152 0
v -1136 -1168 0
v -1152 -1168 0
v -1152 -1152 0
v -1136 -1152 0
v -1152 -1168 0
v -1168 -1168 0
v -1168 -1152 0
v -1152 -1152 0
v -1472 -1168 0
v -1488 -1168 0
v -1488 -1152 0
v -1472 -1152 0
v -1488 -1168 0
v -1504 -1168 0
v -1504 -1152 0
v -1488 -1152 0
v -1504 -1168 0
v -1520 -1168 0
v -1520 -1152 0
v -1504 -1152 0
v -16 -1184 0
v -32 -1184 0
v -32 -1168 0
v -16 -1168 0
v -32 -1184 0
v -48 -1184 0
v -48 -1168 0
v -32 -1168 0
v -48 -1184 0
v -64 -1184 0
v -64 -1168 0
v -48 -1168 0
v -288 -1184 0
v -304 -1184 0
v -304 -1168 0
v -288 -1168 0
v -304 -1184 0
v -320 -1184 0
v -320 -1168 0
v -304 -1168 0
v -320 -1184 0
v -336 -1184 0
v -336 -1168 0
v -320 -1168 0
v -448 -1184 0
v -464 -1184 0
v -464 -1168 0
v -448 -1168 0
v -464 -1184 0
v -480 -1184 0
v -480 -1168 0
v -464 -1168 0
v -480 -1184 0
v -496 -1184 0
v -496 -1168 0
v -480 -1168 0
v -608 -1184 0
v -624 -1184 0
v -624 -1168 0
v -608 -1168 0
v -624 -1184 0
v -640 -1184 0
v -640 -1168 0
v -624 -1168 0
v -640 -1184 0
v -656 -1184 0
v -656 -1168 0
v -640 -1168 0
v -880 -1184 0
v -896 -1184 0
v -896 -1168 0
v -880 -1168 0
v -896 -1184 0
v -912 -1184 0
v -912 -1168 0
v -896 -1168 0
v -912 -1184 0
v -928 -1184 0
v -928 -1168 0
v -912 -1168 0
v -1120 -1184 0
v -1136 -1184 0
v -1136 -1168 0
v -1120 -1168 0
v -1136 -1184 0
v -1152 -1184 0
v -1152 -1168 0
v -1136 -1168 0
v -1152 -1184 0
v -1168 -1184 0
v -1168 -1168 0
v -1152 -1168 0

# Texture cooridinates (Count = 25)
vt 0.8888889 0.6
vt 0.9444444 0.6
vt 0.9444444 0.7
vt 0.8888889 0.7
vt 0.5 0.2
vt 0.5555556 0.2
vt 0.5555556 0.3
vt 0.5 0.3
vt 0.6111111 0.2
vt 0.6111111 0.3
vt 0.6666667 0.2
vt 0.6666667 0.3
vt 0.5 0.1
vt 0.5555556 0.1
vt 0.6111111 0.1
vt 0.6666667 0.1
vt 0.7777778 0.4
vt 0.8333333 0.4
vt 0.8333333 0.5
vt 0.7777778 0.5
vt 0.8888889 0.4
vt 0.8888889 0.5
vt 0.7777778 0.3
vt 0.8333333 0.3
vt 0.8888889 0.3

# Normal
vn 0 0 -1

# Mesh description
g Strong-Winds_mesh_0003

# Faces
f 1/1/1 2/2/1 3/3/1 4/4/1
f 5/5/1 6/6/1 7/7/1 8/8/1
f 9/6/1 10/9/1 11/10/1 12/7/1
f 13/9/1 14/11/1 15/12/1 16/10/1
f 17/5/1 18/6/1 19/7/1 20/8/1
f 21/6/1 22/9/1 23/10/1 24/7/1
f 25/9/1 26/11/1 27/12/1 28/10/1
f 29/1/1 30/2/1 31/3/1 32/4/1
f 33/13/1 34/14/1 35/6/1 36/5/1
f 37/14/1 38/15/1 39/9/1 40/6/1
f 41/15/1 42/16/1 43/11/1 44/9/1
f 45/13/1 46/14/1 47/6/1 48/5/1
f 49/14/1 50/15/1 51/9/1 52/6/1
f 53/15/1 54/16/1 55/11/1 56/9/1
f 57/5/1 58/6/1 59/7/1 60/8/1
f 61/6/1 62/9/1 63/10/1 64/7/1
f 65/9/1 66/11/1 67/12/1 68/10/1
f 69/5/1 70/6/1 71/7/1 72/8/1
f 73/6/1 74/9/1 75/10/1 76/7/1
f 77/9/1 78/11/1 79/12/1 80/10/1
f 81/13/1 82/14/1 83/6/1 84/5/1
f 85/14/1 86/15/1 87/9/1 88/6/1
f 89/15/1 90/16/1 91/11/1 92/9/1
f 93/13/1 94/14/1 95/6/1 96/5/1
f 97/14/1 98/15/1 99/9/1 100/6/1
f 101/15/1 102/16/1 103/11/1 104/9/1
f 105/5/1 106/6/1 107/7/1 108/8/1
f 109/6/1 110/9/1 111/10/1 112/7/1
f 113/9/1 114/11/1 115/12/1 116/10/1
f 117/13/1 118/14/1 119/6/1 120/5/1
f 121/14/1 122/15/1 123/9/1 124/6/1
f 125/15/1 126/16/1 127/11/1 128/9/1
f 129/17/1 130/18/1 131/19/1 132/20/1
f 133/18/1 134/21/1 135/22/1 136/19/1
f 137/5/1 138/6/1 139/7/1 140/8/1
f 141/6/1 142/9/1 143/10/1 144/7/1
f 145/9/1 146/11/1 147/12/1 148/10/1
f 149/23/1 150/24/1 151/18/1 152/17/1
f 153/24/1 154/25/1 155/21/1 156/18/1
f 157/5/1 158/6/1 159/7/1 160/8/1
f 161/6/1 162/9/1 163/10/1 164/7/1
f 165/9/1 166/11/1 167/12/1 168/10/1
f 169/13/1 170/14/1 171/6/1 172/5/1
f 173/14/1 174/15/1 175/9/1 176/6/1
f 177/15/1 178/16/1 179/11/1 180/9/1
f 181/5/1 182/6/1 183/7/1 184/8/1
f 185/6/1 186/9/1 187/10/1 188/7/1
f 189/9/1 190/11/1 191/12/1 192/10/1
f 193/13/1 194/14/1 195/6/1 196/5/1
f 197/14/1 198/15/1 199/9/1 200/6/1
f 201/15/1 202/16/1 203/11/1 204/9/1
f 205/5/1 206/6/1 207/7/1 208/8/1
f 209/6/1 210/9/1 211/10/1 212/7/1
f 213/9/1 214/11/1 215/12/1 216/10/1
f 217/13/1 218/14/1 219/6/1 220/5/1
f 221/14/1 222/15/1 223/9/1 224/6/1
f 225/15/1 226/16/1 227/11/1 228/9/1
f 229/5/1 230/6/1 231/7/1 232/8/1
f 233/6/1 234/9/1 235/10/1 236/7/1
f 237/9/1 238/11/1 239/12/1 240/10/1
f 241/5/1 242/6/1 243/7/1 244/8/1
f 245/6/1 246/9/1 247/10/1 248/7/1
f 249/9/1 250/11/1 251/12/1 252/10/1
f 253/5/1 254/6/1 255/7/1 256/8/1
f 257/6/1 258/9/1 259/10/1 260/7/1
f 261/9/1 262/11/1 263/12/1 264/10/1
f 265/5/1 266/6/1 267/7/1 268/8/1
f 269/6/1 270/9/1 271/10/1 272/7/1
f 273/9/1 274/11/1 275/12/1 276/10/1
f 277/13/1 278/14/1 279/6/1 280/5/1
f 281/14/1 282/15/1 283/9/1 284/6/1
f 285/15/1 286/16/1 287/11/1 288/9/1
f 289/13/1 290/14/1 291/6/1 292/5/1
f 293/14/1 294/15/1 295/9/1 296/6/1
f 297/15/1 298/16/1 299/11/1 300/9/1
f 301/13/1 302/14/1 303/6/1 304/5/1
f 305/14/1 306/15/1 307/9/1 308/6/1
f 309/15/1 310/16/1 311/11/1 312/9/1
f 313/5/1 314/6/1 315/7/1 316/8/1
f 317/6/1 318/9/1 319/10/1 320/7/1
f 321/9/1 322/11/1 323/12/1 324/10/1
f 325/13/1 326/14/1 327/6/1 328/5/1
f 329/14/1 330/15/1 331/9/1 332/6/1
f 333/15/1 334/16/1 335/11/1 336/9/1
f 337/13/1 338/14/1 339/6/1 340/5/1
f 341/14/1 342/15/1 343/9/1 344/6/1
f 345/15/1 346/16/1 347/11/1 348/9/1
f 349/17/1 350/18/1 351/19/1 352/20/1
f 353/18/1 354/21/1 355/22/1 356/19/1
f 357/23/1 358/24/1 359/18/1 360/17/1
f 361/24/1 362/25/1 363/21/1 364/18/1
f 365/5/1 366/6/1 367/7/1 368/8/1
f 369/6/1 370/9/1 371/10/1 372/7/1
f 373/9/1 374/11/1 375/12/1 376/10/1
f 377/17/1 378/18/1 379/19/1 380/20/1
f 381/18/1 382/21/1 383/22/1 384/19/1
f 385/13/1 386/14/1 387/6/1 388/5/1
f 389/14/1 390/15/1 391/9/1 392/6/1
f 393/15/1 394/16/1 395/11/1 396/9/1
f 397/1/1 398/2/1 399/3/1 400/4/1
f 401/5/1 402/6/1 403/7/1 404/8/1
f 405/6/1 406/9/1 407/10/1 408/7/1
f 409/9/1 410/11/1 411/12/1 412/10/1
f 413/23/1 414/24/1 415/18/1 416/17/1
f 417/24/1 418/25/1 419/21/1 420/18/1
f 421/5/1 422/6/1 423/7/1 424/8/1
f 425/6/1 426/9/1 427/10/1 428/7/1
f 429/9/1 430/11/1 431/12/1 432/10/1
f 433/13/1 434/14/1 435/6/1 436/5/1
f 437/14/1 438/15/1 439/9/1 440/6/1
f 441/15/1 442/16/1 443/11/1 444/9/1
f 445/13/1 446/14/1 447/6/1 448/5/1
f 449/14/1 450/15/1 451/9/1 452/6/1
f 453/15/1 454/16/1 455/11/1 456/9/1
f 457/17/1 458/18/1 459/19/1 460/20/1
f 461/18/1 462/21/1 463/22/1 464/19/1
f 465/17/1 466/18/1 467/19/1 468/20/1
f 469/18/1 470/21/1 471/22/1 472/19/1
f 473/23/1 474/24/1 475/18/1 476/17/1
f 477/24/1 478/25/1 479/21/1 480/18/1
f 481/5/1 482/6/1 483/7/1 484/8/1
f 485/6/1 486/9/1 487/10/1 488/7/1
f 489/9/1 490/11/1 491/12/1 492/10/1
f 493/23/1 494/24/1 495/18/1 496/17/1
f 497/24/1 498/25/1 499/21/1 500/18/1
f 501/13/1 502/14/1 503/6/1 504/5/1
f 505/14/1 506/15/1 507/9/1 508/6/1
f 509/15/1 510/16/1 511/11/1 512/9/1
f 513/5/1 514/6/1 515/7/1 516/8/1
f 517/6/1 518/9/1 519/10/1 520/7/1
f 521/9/1 522/11/1 523/12/1 524/10/1
f 525/17/1 526/18/1 527/19/1 528/20/1
f 529/18/1 530/21/1 531/22/1 532/19/1
f 533/13/1 534/14/1 535/6/1 536/5/1
f 537/14/1 538/15/1 539/9/1 540/6/1
f 541/15/1 542/16/1 543/11/1 544/9/1
f 545/23/1 546/24/1 547/18/1 548/17/1
f 549/24/1 550/25/1 551/21/1 552/18/1
f 553/5/1 554/6/1 555/7/1 556/8/1
f 557/6/1 558/9/1 559/10/1 560/7/1
f 561/9/1 562/11/1 563/12/1 564/10/1
f 565/5/1 566/6/1 567/7/1 568/8/1
f 569/6/1 570/9/1 571/10/1 572/7/1
f 573/9/1 574/11/1 575/12/1 576/10/1
f 577/5/1 578/6/1 579/7/1 580/8/1
f 581/6/1 582/9/1 583/10/1 584/7/1
f 585/9/1 586/11/1 587/12/1 588/10/1
f 589/5/1 590/6/1 591/7/1 592/8/1
f 593/6/1 594/9/1 595/10/1 596/7/1
f 597/9/1 598/11/1 599/12/1 600/10/1
f 601/5/1 602/6/1 603/7/1 604/8/1
f 605/6/1 606/9/1 607/10/1 608/7/1
f 609/9/1 610/11/1 611/12/1 612/10/1
f 613/5/1 614/6/1 615/7/1 616/8/1
f 617/6/1 618/9/1 619/10/1 620/7/1
f 621/9/1 622/11/1 623/12/1 624/10/1
f 625/5/1 626/6/1 627/7/1 628/8/1
f 629/6/1 630/9/1 631/10/1 632/7/1
f 633/9/1 634/11/1 635/12/1 636/10/1
f 637/13/1 638/14/1 639/6/1 640/5/1
f 641/14/1 642/15/1 643/9/1 644/6/1
f 645/15/1 646/16/1 647/11/1 648/9/1
f 649/13/1 650/14/1 651/6/1 652/5/1
f 653/14/1 654/15/1 655/9/1 656/6/1
f 657/15/1 658/16/1 659/11/1 660/9/1
f 661/13/1 662/14/1 663/6/1 664/5/1
f 665/14/1 666/15/1 667/9/1 668/6/1
f 669/15/1 670/16/1 671/11/1 672/9/1
f 673/13/1 674/14/1 675/6/1 676/5/1
f 677/14/1 678/15/1 679/9/1 680/6/1
f 681/15/1 682/16/1 683/11/1 684/9/1
f 685/13/1 686/14/1 687/6/1 688/5/1
f 689/14/1 690/15/1 691/9/1 692/6/1
f 693/15/1 694/16/1 695/11/1 696/9/1
f 697/13/1 698/14/1 699/6/1 700/5/1
f 701/14/1 702/15/1 703/9/1 704/6/1
f 705/15/1 706/16/1 707/11/1 708/9/1
f 709/13/1 710/14/1 711/6/1 712/5/1
f 713/14/1 714/15/1 715/9/1 716/6/1
f 717/15/1 718/16/1 719/11/1 720/9/1

