# Tiled2Unity generated file. Do not modify by hand.
# Wavefront file for 'Strong-Winds_mesh_0006.obj'

# Vertices (Count = 232)
v -704 -560 0
v -720 -560 0
v -720 -544 0
v -704 -544 0
v -704 -576 0
v -720 -576 0
v -720 -560 0
v -704 -560 0
v -560 -608 0
v -576 -608 0
v -576 -592 0
v -560 -592 0
v -576 -608 0
v -592 -608 0
v -592 -592 0
v -576 -592 0
v -592 -608 0
v -608 -608 0
v -608 -592 0
v -592 -592 0
v -608 -608 0
v -624 -608 0
v -624 -592 0
v -608 -592 0
v -624 -608 0
v -640 -608 0
v -640 -592 0
v -624 -592 0
v -640 -608 0
v -656 -608 0
v -656 -592 0
v -640 -592 0
v -656 -608 0
v -672 -608 0
v -672 -592 0
v -656 -592 0
v -672 -608 0
v -688 -608 0
v -688 -592 0
v -672 -592 0
v -560 -624 0
v -576 -624 0
v -576 -608 0
v -560 -608 0
v -576 -624 0
v -592 -624 0
v -592 -608 0
v -576 -608 0
v -592 -624 0
v -608 -624 0
v -608 -608 0
v -592 -608 0
v -608 -624 0
v -624 -624 0
v -624 -608 0
v -608 -608 0
v -624 -624 0
v -640 -624 0
v -640 -608 0
v -624 -608 0
v -640 -624 0
v -656 -624 0
v -656 -608 0
v -640 -608 0
v -656 -624 0
v -672 -624 0
v -672 -608 0
v -656 -608 0
v -672 -624 0
v -688 -624 0
v -688 -608 0
v -672 -608 0
v -560 -640 0
v -576 -640 0
v -576 -624 0
v -560 -624 0
v -576 -640 0
v -592 -640 0
v -592 -624 0
v -576 -624 0
v -592 -640 0
v -608 -640 0
v -608 -624 0
v -592 -624 0
v -608 -640 0
v -624 -640 0
v -624 -624 0
v -608 -624 0
v -624 -640 0
v -640 -640 0
v -640 -624 0
v -624 -624 0
v -640 -640 0
v -656 -640 0
v -656 -624 0
v -640 -624 0
v -656 -640 0
v -672 -640 0
v -672 -624 0
v -656 -624 0
v -672 -640 0
v -688 -640 0
v -688 -624 0
v -672 -624 0
v -560 -656 0
v -576 -656 0
v -576 -640 0
v -560 -640 0
v -576 -656 0
v -592 -656 0
v -592 -640 0
v -576 -640 0
v -592 -656 0
v -608 -656 0
v -608 -640 0
v -592 -640 0
v -608 -656 0
v -624 -656 0
v -624 -640 0
v -608 -640 0
v -624 -656 0
v -640 -656 0
v -640 -640 0
v -624 -640 0
v -640 -656 0
v -656 -656 0
v -656 -640 0
v -640 -640 0
v -656 -656 0
v -672 -656 0
v -672 -640 0
v -656 -640 0
v -672 -656 0
v -688 -656 0
v -688 -640 0
v -672 -640 0
v -560 -672 0
v -576 -672 0
v -576 -656 0
v -560 -656 0
v -576 -672 0
v -592 -672 0
v -592 -656 0
v -576 -656 0
v -592 -672 0
v -608 -672 0
v -608 -656 0
v -592 -656 0
v -608 -672 0
v -624 -672 0
v -624 -656 0
v -608 -656 0
v -624 -672 0
v -640 -672 0
v -640 -656 0
v -624 -656 0
v -640 -672 0
v -656 -672 0
v -656 -656 0
v -640 -656 0
v -656 -672 0
v -672 -672 0
v -672 -656 0
v -656 -656 0
v -672 -672 0
v -688 -672 0
v -688 -656 0
v -672 -656 0
v -928 -672 0
v -944 -672 0
v -944 -656 0
v -928 -656 0
v -944 -672 0
v -960 -672 0
v -960 -656 0
v -944 -656 0
v -560 -688 0
v -576 -688 0
v -576 -672 0
v -560 -672 0
v -576 -688 0
v -592 -688 0
v -592 -672 0
v -576 -672 0
v -592 -688 0
v -608 -688 0
v -608 -672 0
v -592 -672 0
v -608 -688 0
v -624 -688 0
v -624 -672 0
v -608 -672 0
v -624 -688 0
v -640 -688 0
v -640 -672 0
v -624 -672 0
v -640 -688 0
v -656 -688 0
v -656 -672 0
v -640 -672 0
v -656 -688 0
v -672 -688 0
v -672 -672 0
v -656 -672 0
v -672 -688 0
v -688 -688 0
v -688 -672 0
v -672 -672 0
v -928 -688 0
v -944 -688 0
v -944 -672 0
v -928 -672 0
v -944 -688 0
v -960 -688 0
v -960 -672 0
v -944 -672 0
v -1024 -704 0
v -1040 -704 0
v -1040 -688 0
v -1024 -688 0
v -1040 -704 0
v -1056 -704 0
v -1056 -688 0
v -1040 -688 0
v -1024 -720 0
v -1040 -720 0
v -1040 -704 0
v -1024 -704 0
v -1040 -720 0
v -1056 -720 0
v -1056 -704 0
v -1040 -704 0

# Texture cooridinates (Count = 84)
vt 0.21875 0.6746032
vt 0.234375 0.6746032
vt 0.234375 0.6825397
vt 0.21875 0.6825397
vt 0.21875 0.6666666
vt 0.234375 0.6666666
vt 0.625 0.2777778
vt 0.640625 0.2777778
vt 0.640625 0.2857143
vt 0.625 0.2857143
vt 0.65625 0.2777778
vt 0.65625 0.2857143
vt 0.671875 0.2777778
vt 0.671875 0.2857143
vt 0.6875 0.2777778
vt 0.6875 0.2857143
vt 0.703125 0.2777778
vt 0.703125 0.2857143
vt 0.71875 0.2777778
vt 0.71875 0.2857143
vt 0.734375 0.2777778
vt 0.734375 0.2857143
vt 0.75 0.2777778
vt 0.75 0.2857143
vt 0.625 0.2698413
vt 0.640625 0.2698413
vt 0.65625 0.2698413
vt 0.671875 0.2698413
vt 0.6875 0.2698413
vt 0.703125 0.2698413
vt 0.71875 0.2698413
vt 0.734375 0.2698413
vt 0.75 0.2698413
vt 0.625 0.2619048
vt 0.640625 0.2619048
vt 0.65625 0.2619048
vt 0.671875 0.2619048
vt 0.6875 0.2619048
vt 0.703125 0.2619048
vt 0.71875 0.2619048
vt 0.734375 0.2619048
vt 0.75 0.2619048
vt 0.625 0.2539682
vt 0.640625 0.2539682
vt 0.65625 0.2539682
vt 0.671875 0.2539682
vt 0.6875 0.2539682
vt 0.703125 0.2539682
vt 0.71875 0.2539682
vt 0.734375 0.2539682
vt 0.75 0.2539682
vt 0.625 0.2460318
vt 0.640625 0.2460318
vt 0.65625 0.2460318
vt 0.671875 0.2460318
vt 0.6875 0.2460318
vt 0.703125 0.2460318
vt 0.71875 0.2460318
vt 0.734375 0.2460318
vt 0.75 0.2460318
vt 0.0625 0.1349207
vt 0.078125 0.1349207
vt 0.078125 0.1428571
vt 0.0625 0.1428571
vt 0.09375 0.1349207
vt 0.09375 0.1428571
vt 0.625 0.2380952
vt 0.640625 0.2380952
vt 0.65625 0.2380952
vt 0.671875 0.2380952
vt 0.6875 0.2380952
vt 0.703125 0.2380952
vt 0.71875 0.2380952
vt 0.734375 0.2380952
vt 0.75 0.2380952
vt 0.0625 0.1269841
vt 0.078125 0.1269841
vt 0.09375 0.1269841
vt 0.109375 0.1349207
vt 0.109375 0.1428571
vt 0.125 0.1349207
vt 0.125 0.1428571
vt 0.109375 0.1269841
vt 0.125 0.1269841

# Normal
vn 0 0 -1

# Mesh description
g Strong-Winds_mesh_0006

# Faces
f 1/1/1 2/2/1 3/3/1 4/4/1
f 5/5/1 6/6/1 7/2/1 8/1/1
f 9/7/1 10/8/1 11/9/1 12/10/1
f 13/8/1 14/11/1 15/12/1 16/9/1
f 17/11/1 18/13/1 19/14/1 20/12/1
f 21/13/1 22/15/1 23/16/1 24/14/1
f 25/15/1 26/17/1 27/18/1 28/16/1
f 29/17/1 30/19/1 31/20/1 32/18/1
f 33/19/1 34/21/1 35/22/1 36/20/1
f 37/21/1 38/23/1 39/24/1 40/22/1
f 41/25/1 42/26/1 43/8/1 44/7/1
f 45/26/1 46/27/1 47/11/1 48/8/1
f 49/27/1 50/28/1 51/13/1 52/11/1
f 53/28/1 54/29/1 55/15/1 56/13/1
f 57/29/1 58/30/1 59/17/1 60/15/1
f 61/30/1 62/31/1 63/19/1 64/17/1
f 65/31/1 66/32/1 67/21/1 68/19/1
f 69/32/1 70/33/1 71/23/1 72/21/1
f 73/34/1 74/35/1 75/26/1 76/25/1
f 77/35/1 78/36/1 79/27/1 80/26/1
f 81/36/1 82/37/1 83/28/1 84/27/1
f 85/37/1 86/38/1 87/29/1 88/28/1
f 89/38/1 90/39/1 91/30/1 92/29/1
f 93/39/1 94/40/1 95/31/1 96/30/1
f 97/40/1 98/41/1 99/32/1 100/31/1
f 101/41/1 102/42/1 103/33/1 104/32/1
f 105/43/1 106/44/1 107/35/1 108/34/1
f 109/44/1 110/45/1 111/36/1 112/35/1
f 113/45/1 114/46/1 115/37/1 116/36/1
f 117/46/1 118/47/1 119/38/1 120/37/1
f 121/47/1 122/48/1 123/39/1 124/38/1
f 125/48/1 126/49/1 127/40/1 128/39/1
f 129/49/1 130/50/1 131/41/1 132/40/1
f 133/50/1 134/51/1 135/42/1 136/41/1
f 137/52/1 138/53/1 139/44/1 140/43/1
f 141/53/1 142/54/1 143/45/1 144/44/1
f 145/54/1 146/55/1 147/46/1 148/45/1
f 149/55/1 150/56/1 151/47/1 152/46/1
f 153/56/1 154/57/1 155/48/1 156/47/1
f 157/57/1 158/58/1 159/49/1 160/48/1
f 161/58/1 162/59/1 163/50/1 164/49/1
f 165/59/1 166/60/1 167/51/1 168/50/1
f 169/61/1 170/62/1 171/63/1 172/64/1
f 173/62/1 174/65/1 175/66/1 176/63/1
f 177/67/1 178/68/1 179/53/1 180/52/1
f 181/68/1 182/69/1 183/54/1 184/53/1
f 185/69/1 186/70/1 187/55/1 188/54/1
f 189/70/1 190/71/1 191/56/1 192/55/1
f 193/71/1 194/72/1 195/57/1 196/56/1
f 197/72/1 198/73/1 199/58/1 200/57/1
f 201/73/1 202/74/1 203/59/1 204/58/1
f 205/74/1 206/75/1 207/60/1 208/59/1
f 209/76/1 210/77/1 211/62/1 212/61/1
f 213/77/1 214/78/1 215/65/1 216/62/1
f 217/65/1 218/79/1 219/80/1 220/66/1
f 221/79/1 222/81/1 223/82/1 224/80/1
f 225/78/1 226/83/1 227/79/1 228/65/1
f 229/83/1 230/84/1 231/81/1 232/79/1

