# Tiled2Unity generated file. Do not modify by hand.
# Wavefront file for 'Strong-Winds_mesh_0005.obj'

# Vertices (Count = 36)
v -864 -528 0
v -880 -528 0
v -880 -512 0
v -864 -512 0
v -880 -528 0
v -896 -528 0
v -896 -512 0
v -880 -512 0
v -896 -528 0
v -912 -528 0
v -912 -512 0
v -896 -512 0
v -912 -528 0
v -928 -528 0
v -928 -512 0
v -912 -512 0
v -928 -528 0
v -944 -528 0
v -944 -512 0
v -928 -512 0
v -944 -528 0
v -960 -528 0
v -960 -512 0
v -944 -512 0
v -992 -528 0
v -1008 -528 0
v -1008 -512 0
v -992 -512 0
v -1008 -528 0
v -1024 -528 0
v -1024 -512 0
v -1008 -512 0
v -992 -752 0
v -1008 -752 0
v -1008 -736 0
v -992 -736 0

# Texture cooridinates (Count = 10)
vt 0.875 0.1666667
vt 0.90625 0.1666667
vt 0.90625 0.2083333
vt 0.875 0.2083333
vt 0.9375 0.1666667
vt 0.9375 0.2083333
vt 0.28125 0.04166669
vt 0.3125 0.04166669
vt 0.3125 0.08333331
vt 0.28125 0.08333331

# Normal
vn 0 0 -1

# Mesh description
g Strong-Winds_mesh_0005

# Faces
f 1/1/1 2/2/1 3/3/1 4/4/1
f 5/2/1 6/5/1 7/6/1 8/3/1
f 9/2/1 10/5/1 11/6/1 12/3/1
f 13/2/1 14/5/1 15/6/1 16/3/1
f 17/2/1 18/5/1 19/6/1 20/3/1
f 21/2/1 22/5/1 23/6/1 24/3/1
f 25/1/1 26/2/1 27/3/1 28/4/1
f 29/2/1 30/5/1 31/6/1 32/3/1
f 33/7/1 34/8/1 35/9/1 36/10/1

