# Tiled2Unity generated file. Do not modify by hand.
# Wavefront file for 'Strong-Winds_mesh_0015.obj'

# Vertices (Count = 340)
v -960 -864 0
v -976 -864 0
v -976 -848 0
v -960 -848 0
v -976 -864 0
v -992 -864 0
v -992 -848 0
v -976 -848 0
v -992 -864 0
v -1008 -864 0
v -1008 -848 0
v -992 -848 0
v -1008 -864 0
v -1024 -864 0
v -1024 -848 0
v -1008 -848 0
v -1024 -864 0
v -1040 -864 0
v -1040 -848 0
v -1024 -848 0
v -1040 -864 0
v -1056 -864 0
v -1056 -848 0
v -1040 -848 0
v -1056 -864 0
v -1072 -864 0
v -1072 -848 0
v -1056 -848 0
v -960 -880 0
v -976 -880 0
v -976 -864 0
v -960 -864 0
v -976 -880 0
v -992 -880 0
v -992 -864 0
v -976 -864 0
v -992 -880 0
v -1008 -880 0
v -1008 -864 0
v -992 -864 0
v -1008 -880 0
v -1024 -880 0
v -1024 -864 0
v -1008 -864 0
v -1024 -880 0
v -1040 -880 0
v -1040 -864 0
v -1024 -864 0
v -1040 -880 0
v -1056 -880 0
v -1056 -864 0
v -1040 -864 0
v -1056 -880 0
v -1072 -880 0
v -1072 -864 0
v -1056 -864 0
v -960 -896 0
v -976 -896 0
v -976 -880 0
v -960 -880 0
v -976 -896 0
v -992 -896 0
v -992 -880 0
v -976 -880 0
v -992 -896 0
v -1008 -896 0
v -1008 -880 0
v -992 -880 0
v -1008 -896 0
v -1024 -896 0
v -1024 -880 0
v -1008 -880 0
v -1024 -896 0
v -1040 -896 0
v -1040 -880 0
v -1024 -880 0
v -1040 -896 0
v -1056 -896 0
v -1056 -880 0
v -1040 -880 0
v -1056 -896 0
v -1072 -896 0
v -1072 -880 0
v -1056 -880 0
v -960 -912 0
v -976 -912 0
v -976 -896 0
v -960 -896 0
v -976 -912 0
v -992 -912 0
v -992 -896 0
v -976 -896 0
v -992 -912 0
v -1008 -912 0
v -1008 -896 0
v -992 -896 0
v -1008 -912 0
v -1024 -912 0
v -1024 -896 0
v -1008 -896 0
v -1024 -912 0
v -1040 -912 0
v -1040 -896 0
v -1024 -896 0
v -1040 -912 0
v -1056 -912 0
v -1056 -896 0
v -1040 -896 0
v -1056 -912 0
v -1072 -912 0
v -1072 -896 0
v -1056 -896 0
v -960 -928 0
v -976 -928 0
v -976 -912 0
v -960 -912 0
v -976 -928 0
v -992 -928 0
v -992 -912 0
v -976 -912 0
v -992 -928 0
v -1008 -928 0
v -1008 -912 0
v -992 -912 0
v -1008 -928 0
v -1024 -928 0
v -1024 -912 0
v -1008 -912 0
v -1024 -928 0
v -1040 -928 0
v -1040 -912 0
v -1024 -912 0
v -1040 -928 0
v -1056 -928 0
v -1056 -912 0
v -1040 -912 0
v -1056 -928 0
v -1072 -928 0
v -1072 -912 0
v -1056 -912 0
v -960 -944 0
v -976 -944 0
v -976 -928 0
v -960 -928 0
v -976 -944 0
v -992 -944 0
v -992 -928 0
v -976 -928 0
v -992 -944 0
v -1008 -944 0
v -1008 -928 0
v -992 -928 0
v -1008 -944 0
v -1024 -944 0
v -1024 -928 0
v -1008 -928 0
v -1024 -944 0
v -1040 -944 0
v -1040 -928 0
v -1024 -928 0
v -1040 -944 0
v -1056 -944 0
v -1056 -928 0
v -1040 -928 0
v -1056 -944 0
v -1072 -944 0
v -1072 -928 0
v -1056 -928 0
v -960 -960 0
v -976 -960 0
v -976 -944 0
v -960 -944 0
v -976 -960 0
v -992 -960 0
v -992 -944 0
v -976 -944 0
v -992 -960 0
v -1008 -960 0
v -1008 -944 0
v -992 -944 0
v -1008 -960 0
v -1024 -960 0
v -1024 -944 0
v -1008 -944 0
v -1024 -960 0
v -1040 -960 0
v -1040 -944 0
v -1024 -944 0
v -1040 -960 0
v -1056 -960 0
v -1056 -944 0
v -1040 -944 0
v -1056 -960 0
v -1072 -960 0
v -1072 -944 0
v -1056 -944 0
v 0 -1056 0
v -16 -1056 0
v -16 -1040 0
v 0 -1040 0
v -16 -1056 0
v -32 -1056 0
v -32 -1040 0
v -16 -1040 0
v -32 -1056 0
v -48 -1056 0
v -48 -1040 0
v -32 -1040 0
v -48 -1056 0
v -64 -1056 0
v -64 -1040 0
v -48 -1040 0
v -64 -1056 0
v -80 -1056 0
v -80 -1040 0
v -64 -1040 0
v -80 -1056 0
v -96 -1056 0
v -96 -1040 0
v -80 -1040 0
v -16 -1072 0
v -32 -1072 0
v -32 -1056 0
v -16 -1056 0
v -32 -1072 0
v -48 -1072 0
v -48 -1056 0
v -32 -1056 0
v -48 -1072 0
v -64 -1072 0
v -64 -1056 0
v -48 -1056 0
v -64 -1072 0
v -80 -1072 0
v -80 -1056 0
v -64 -1056 0
v -80 -1072 0
v -96 -1072 0
v -96 -1056 0
v -80 -1056 0
v -16 -1088 0
v -32 -1088 0
v -32 -1072 0
v -16 -1072 0
v -32 -1088 0
v -48 -1088 0
v -48 -1072 0
v -32 -1072 0
v -48 -1088 0
v -64 -1088 0
v -64 -1072 0
v -48 -1072 0
v -64 -1088 0
v -80 -1088 0
v -80 -1072 0
v -64 -1072 0
v -80 -1088 0
v -96 -1088 0
v -96 -1072 0
v -80 -1072 0
v -16 -1104 0
v -32 -1104 0
v -32 -1088 0
v -16 -1088 0
v -32 -1104 0
v -48 -1104 0
v -48 -1088 0
v -32 -1088 0
v -48 -1104 0
v -64 -1104 0
v -64 -1088 0
v -48 -1088 0
v -64 -1104 0
v -80 -1104 0
v -80 -1088 0
v -64 -1088 0
v -80 -1104 0
v -96 -1104 0
v -96 -1088 0
v -80 -1088 0
v -16 -1120 0
v -32 -1120 0
v -32 -1104 0
v -16 -1104 0
v -32 -1120 0
v -48 -1120 0
v -48 -1104 0
v -32 -1104 0
v -48 -1120 0
v -64 -1120 0
v -64 -1104 0
v -48 -1104 0
v -64 -1120 0
v -80 -1120 0
v -80 -1104 0
v -64 -1104 0
v -80 -1120 0
v -96 -1120 0
v -96 -1104 0
v -80 -1104 0
v -16 -1136 0
v -32 -1136 0
v -32 -1120 0
v -16 -1120 0
v -32 -1136 0
v -48 -1136 0
v -48 -1120 0
v -32 -1120 0
v -48 -1136 0
v -64 -1136 0
v -64 -1120 0
v -48 -1120 0
v -64 -1136 0
v -80 -1136 0
v -80 -1120 0
v -64 -1120 0
v -80 -1136 0
v -96 -1136 0
v -96 -1120 0
v -80 -1120 0
v -16 -1152 0
v -32 -1152 0
v -32 -1136 0
v -16 -1136 0
v -32 -1152 0
v -48 -1152 0
v -48 -1136 0
v -32 -1136 0
v -48 -1152 0
v -64 -1152 0
v -64 -1136 0
v -48 -1136 0
v -64 -1152 0
v -80 -1152 0
v -80 -1136 0
v -64 -1136 0
v -80 -1152 0
v -96 -1152 0
v -96 -1136 0
v -80 -1136 0

# Texture cooridinates (Count = 64)
vt 0.3888889 0.9
vt 0.4444444 0.9
vt 0.4444444 1
vt 0.3888889 1
vt 0.5 0.9
vt 0.5 1
vt 0.5555556 0.9
vt 0.5555556 1
vt 0.6111111 0.9
vt 0.6111111 1
vt 0.6666667 0.9
vt 0.6666667 1
vt 0.7222222 0.9
vt 0.7222222 1
vt 0.7777778 0.9
vt 0.7777778 1
vt 0.3888889 0.8
vt 0.4444444 0.8
vt 0.5 0.8
vt 0.5555556 0.8
vt 0.6111111 0.8
vt 0.6666667 0.8
vt 0.7222222 0.8
vt 0.7777778 0.8
vt 0.3888889 0.7
vt 0.4444444 0.7
vt 0.5 0.7
vt 0.5555556 0.7
vt 0.6111111 0.7
vt 0.6666667 0.7
vt 0.7222222 0.7
vt 0.7777778 0.7
vt 0.3888889 0.6
vt 0.4444444 0.6
vt 0.5 0.6
vt 0.5555556 0.6
vt 0.6111111 0.6
vt 0.6666667 0.6
vt 0.7222222 0.6
vt 0.7777778 0.6
vt 0.3888889 0.5
vt 0.4444444 0.5
vt 0.5 0.5
vt 0.5555556 0.5
vt 0.6111111 0.5
vt 0.6666667 0.5
vt 0.7222222 0.5
vt 0.7777778 0.5
vt 0.3888889 0.4
vt 0.4444444 0.4
vt 0.5 0.4
vt 0.5555556 0.4
vt 0.6111111 0.4
vt 0.6666667 0.4
vt 0.7222222 0.4
vt 0.7777778 0.4
vt 0.3888889 0.3
vt 0.4444444 0.3
vt 0.5 0.3
vt 0.5555556 0.3
vt 0.6111111 0.3
vt 0.6666667 0.3
vt 0.7222222 0.3
vt 0.7777778 0.3

# Normal
vn 0 0 -1

# Mesh description
g Strong-Winds_mesh_0015

# Faces
f 1/1/1 2/2/1 3/3/1 4/4/1
f 5/2/1 6/5/1 7/6/1 8/3/1
f 9/5/1 10/7/1 11/8/1 12/6/1
f 13/7/1 14/9/1 15/10/1 16/8/1
f 17/9/1 18/11/1 19/12/1 20/10/1
f 21/11/1 22/13/1 23/14/1 24/12/1
f 25/13/1 26/15/1 27/16/1 28/14/1
f 29/17/1 30/18/1 31/2/1 32/1/1
f 33/18/1 34/19/1 35/5/1 36/2/1
f 37/19/1 38/20/1 39/7/1 40/5/1
f 41/20/1 42/21/1 43/9/1 44/7/1
f 45/21/1 46/22/1 47/11/1 48/9/1
f 49/22/1 50/23/1 51/13/1 52/11/1
f 53/23/1 54/24/1 55/15/1 56/13/1
f 57/25/1 58/26/1 59/18/1 60/17/1
f 61/26/1 62/27/1 63/19/1 64/18/1
f 65/27/1 66/28/1 67/20/1 68/19/1
f 69/28/1 70/29/1 71/21/1 72/20/1
f 73/29/1 74/30/1 75/22/1 76/21/1
f 77/30/1 78/31/1 79/23/1 80/22/1
f 81/31/1 82/32/1 83/24/1 84/23/1
f 85/33/1 86/34/1 87/26/1 88/25/1
f 89/34/1 90/35/1 91/27/1 92/26/1
f 93/35/1 94/36/1 95/28/1 96/27/1
f 97/36/1 98/37/1 99/29/1 100/28/1
f 101/37/1 102/38/1 103/30/1 104/29/1
f 105/38/1 106/39/1 107/31/1 108/30/1
f 109/39/1 110/40/1 111/32/1 112/31/1
f 113/41/1 114/42/1 115/34/1 116/33/1
f 117/42/1 118/43/1 119/35/1 120/34/1
f 121/43/1 122/44/1 123/36/1 124/35/1
f 125/44/1 126/45/1 127/37/1 128/36/1
f 129/45/1 130/46/1 131/38/1 132/37/1
f 133/46/1 134/47/1 135/39/1 136/38/1
f 137/47/1 138/48/1 139/40/1 140/39/1
f 141/49/1 142/50/1 143/42/1 144/41/1
f 145/50/1 146/51/1 147/43/1 148/42/1
f 149/51/1 150/52/1 151/44/1 152/43/1
f 153/52/1 154/53/1 155/45/1 156/44/1
f 157/53/1 158/54/1 159/46/1 160/45/1
f 161/54/1 162/55/1 163/47/1 164/46/1
f 165/55/1 166/56/1 167/48/1 168/47/1
f 169/57/1 170/58/1 171/50/1 172/49/1
f 173/58/1 174/59/1 175/51/1 176/50/1
f 177/59/1 178/60/1 179/52/1 180/51/1
f 181/60/1 182/61/1 183/53/1 184/52/1
f 185/61/1 186/62/1 187/54/1 188/53/1
f 189/62/1 190/63/1 191/55/1 192/54/1
f 193/63/1 194/64/1 195/56/1 196/55/1
f 197/2/1 198/5/1 199/6/1 200/3/1
f 201/5/1 202/7/1 203/8/1 204/6/1
f 205/7/1 206/9/1 207/10/1 208/8/1
f 209/9/1 210/11/1 211/12/1 212/10/1
f 213/11/1 214/13/1 215/14/1 216/12/1
f 217/13/1 218/15/1 219/16/1 220/14/1
f 221/19/1 222/20/1 223/7/1 224/5/1
f 225/20/1 226/21/1 227/9/1 228/7/1
f 229/21/1 230/22/1 231/11/1 232/9/1
f 233/22/1 234/23/1 235/13/1 236/11/1
f 237/23/1 238/24/1 239/15/1 240/13/1
f 241/27/1 242/28/1 243/20/1 244/19/1
f 245/28/1 246/29/1 247/21/1 248/20/1
f 249/29/1 250/30/1 251/22/1 252/21/1
f 253/30/1 254/31/1 255/23/1 256/22/1
f 257/31/1 258/32/1 259/24/1 260/23/1
f 261/35/1 262/36/1 263/28/1 264/27/1
f 265/36/1 266/37/1 267/29/1 268/28/1
f 269/37/1 270/38/1 271/30/1 272/29/1
f 273/38/1 274/39/1 275/31/1 276/30/1
f 277/39/1 278/40/1 279/32/1 280/31/1
f 281/43/1 282/44/1 283/36/1 284/35/1
f 285/44/1 286/45/1 287/37/1 288/36/1
f 289/45/1 290/46/1 291/38/1 292/37/1
f 293/46/1 294/47/1 295/39/1 296/38/1
f 297/47/1 298/48/1 299/40/1 300/39/1
f 301/51/1 302/52/1 303/44/1 304/43/1
f 305/52/1 306/53/1 307/45/1 308/44/1
f 309/53/1 310/54/1 311/46/1 312/45/1
f 313/54/1 314/55/1 315/47/1 316/46/1
f 317/55/1 318/56/1 319/48/1 320/47/1
f 321/59/1 322/60/1 323/52/1 324/51/1
f 325/60/1 326/61/1 327/53/1 328/52/1
f 329/61/1 330/62/1 331/54/1 332/53/1
f 333/62/1 334/63/1 335/55/1 336/54/1
f 337/63/1 338/64/1 339/56/1 340/55/1

