# Tiled2Unity generated file. Do not modify by hand.
# Wavefront file for 'Strong-Winds_mesh_0006.obj'

# Vertices (Count = 428)
v -736 -496 0
v -752 -496 0
v -752 -480 0
v -736 -480 0
v -752 -496 0
v -768 -496 0
v -768 -480 0
v -752 -480 0
v -768 -496 0
v -784 -496 0
v -784 -480 0
v -768 -480 0
v -784 -496 0
v -800 -496 0
v -800 -480 0
v -784 -480 0
v -800 -496 0
v -816 -496 0
v -816 -480 0
v -800 -480 0
v -816 -496 0
v -832 -496 0
v -832 -480 0
v -816 -480 0
v -832 -496 0
v -848 -496 0
v -848 -480 0
v -832 -480 0
v -848 -496 0
v -864 -496 0
v -864 -480 0
v -848 -480 0
v -864 -496 0
v -880 -496 0
v -880 -480 0
v -864 -480 0
v -880 -496 0
v -896 -496 0
v -896 -480 0
v -880 -480 0
v -896 -496 0
v -912 -496 0
v -912 -480 0
v -896 -480 0
v -912 -496 0
v -928 -496 0
v -928 -480 0
v -912 -480 0
v -928 -496 0
v -944 -496 0
v -944 -480 0
v -928 -480 0
v -944 -496 0
v -960 -496 0
v -960 -480 0
v -944 -480 0
v -960 -496 0
v -976 -496 0
v -976 -480 0
v -960 -480 0
v -976 -496 0
v -992 -496 0
v -992 -480 0
v -976 -480 0
v -1024 -496 0
v -1040 -496 0
v -1040 -480 0
v -1024 -480 0
v -1040 -496 0
v -1056 -496 0
v -1056 -480 0
v -1040 -480 0
v -1056 -496 0
v -1072 -496 0
v -1072 -480 0
v -1056 -480 0
v -736 -512 0
v -752 -512 0
v -752 -496 0
v -736 -496 0
v -752 -512 0
v -768 -512 0
v -768 -496 0
v -752 -496 0
v -768 -512 0
v -784 -512 0
v -784 -496 0
v -768 -496 0
v -784 -512 0
v -800 -512 0
v -800 -496 0
v -784 -496 0
v -800 -512 0
v -816 -512 0
v -816 -496 0
v -800 -496 0
v -816 -512 0
v -832 -512 0
v -832 -496 0
v -816 -496 0
v -832 -512 0
v -848 -512 0
v -848 -496 0
v -832 -496 0
v -848 -512 0
v -864 -512 0
v -864 -496 0
v -848 -496 0
v -864 -512 0
v -880 -512 0
v -880 -496 0
v -864 -496 0
v -880 -512 0
v -896 -512 0
v -896 -496 0
v -880 -496 0
v -896 -512 0
v -912 -512 0
v -912 -496 0
v -896 -496 0
v -912 -512 0
v -928 -512 0
v -928 -496 0
v -912 -496 0
v -928 -512 0
v -944 -512 0
v -944 -496 0
v -928 -496 0
v -944 -512 0
v -960 -512 0
v -960 -496 0
v -944 -496 0
v -960 -512 0
v -976 -512 0
v -976 -496 0
v -960 -496 0
v -976 -512 0
v -992 -512 0
v -992 -496 0
v -976 -496 0
v -992 -512 0
v -1008 -512 0
v -1008 -496 0
v -992 -496 0
v -1024 -512 0
v -1040 -512 0
v -1040 -496 0
v -1024 -496 0
v -1040 -512 0
v -1056 -512 0
v -1056 -496 0
v -1040 -496 0
v -1056 -512 0
v -1072 -512 0
v -1072 -496 0
v -1056 -496 0
v -736 -544 0
v -752 -544 0
v -752 -528 0
v -736 -528 0
v -752 -544 0
v -768 -544 0
v -768 -528 0
v -752 -528 0
v -768 -544 0
v -784 -544 0
v -784 -528 0
v -768 -528 0
v -784 -544 0
v -800 -544 0
v -800 -528 0
v -784 -528 0
v -800 -544 0
v -816 -544 0
v -816 -528 0
v -800 -528 0
v -816 -544 0
v -832 -544 0
v -832 -528 0
v -816 -528 0
v -832 -544 0
v -848 -544 0
v -848 -528 0
v -832 -528 0
v -848 -544 0
v -864 -544 0
v -864 -528 0
v -848 -528 0
v -864 -544 0
v -880 -544 0
v -880 -528 0
v -864 -528 0
v -880 -544 0
v -896 -544 0
v -896 -528 0
v -880 -528 0
v -896 -544 0
v -912 -544 0
v -912 -528 0
v -896 -528 0
v -912 -544 0
v -928 -544 0
v -928 -528 0
v -912 -528 0
v -928 -544 0
v -944 -544 0
v -944 -528 0
v -928 -528 0
v -944 -544 0
v -960 -544 0
v -960 -528 0
v -944 -528 0
v -960 -544 0
v -976 -544 0
v -976 -528 0
v -960 -528 0
v -1008 -544 0
v -1024 -544 0
v -1024 -528 0
v -1008 -528 0
v -720 -560 0
v -736 -560 0
v -736 -544 0
v -720 -544 0
v -736 -560 0
v -752 -560 0
v -752 -544 0
v -736 -544 0
v -752 -560 0
v -768 -560 0
v -768 -544 0
v -752 -544 0
v -768 -560 0
v -784 -560 0
v -784 -544 0
v -768 -544 0
v -784 -560 0
v -800 -560 0
v -800 -544 0
v -784 -544 0
v -800 -560 0
v -816 -560 0
v -816 -544 0
v -800 -544 0
v -816 -560 0
v -832 -560 0
v -832 -544 0
v -816 -544 0
v -832 -560 0
v -848 -560 0
v -848 -544 0
v -832 -544 0
v -848 -560 0
v -864 -560 0
v -864 -544 0
v -848 -544 0
v -864 -560 0
v -880 -560 0
v -880 -544 0
v -864 -544 0
v -880 -560 0
v -896 -560 0
v -896 -544 0
v -880 -544 0
v -896 -560 0
v -912 -560 0
v -912 -544 0
v -896 -544 0
v -912 -560 0
v -928 -560 0
v -928 -544 0
v -912 -544 0
v -928 -560 0
v -944 -560 0
v -944 -544 0
v -928 -544 0
v -944 -560 0
v -960 -560 0
v -960 -544 0
v -944 -544 0
v -960 -560 0
v -976 -560 0
v -976 -544 0
v -960 -544 0
v -1008 -560 0
v -1024 -560 0
v -1024 -544 0
v -1008 -544 0
v -720 -576 0
v -736 -576 0
v -736 -560 0
v -720 -560 0
v -736 -576 0
v -752 -576 0
v -752 -560 0
v -736 -560 0
v -752 -576 0
v -768 -576 0
v -768 -560 0
v -752 -560 0
v -768 -576 0
v -784 -576 0
v -784 -560 0
v -768 -560 0
v -784 -576 0
v -800 -576 0
v -800 -560 0
v -784 -560 0
v -800 -576 0
v -816 -576 0
v -816 -560 0
v -800 -560 0
v -816 -576 0
v -832 -576 0
v -832 -560 0
v -816 -560 0
v -832 -576 0
v -848 -576 0
v -848 -560 0
v -832 -560 0
v -848 -576 0
v -864 -576 0
v -864 -560 0
v -848 -560 0
v -864 -576 0
v -880 -576 0
v -880 -560 0
v -864 -560 0
v -880 -576 0
v -896 -576 0
v -896 -560 0
v -880 -560 0
v -896 -576 0
v -912 -576 0
v -912 -560 0
v -896 -560 0
v -912 -576 0
v -928 -576 0
v -928 -560 0
v -912 -560 0
v -928 -576 0
v -944 -576 0
v -944 -560 0
v -928 -560 0
v -944 -576 0
v -960 -576 0
v -960 -560 0
v -944 -560 0
v -960 -576 0
v -976 -576 0
v -976 -560 0
v -960 -560 0
v -1008 -576 0
v -1024 -576 0
v -1024 -560 0
v -1008 -560 0
v -720 -592 0
v -736 -592 0
v -736 -576 0
v -720 -576 0
v -736 -592 0
v -752 -592 0
v -752 -576 0
v -736 -576 0
v -752 -592 0
v -768 -592 0
v -768 -576 0
v -752 -576 0
v -768 -592 0
v -784 -592 0
v -784 -576 0
v -768 -576 0
v -784 -592 0
v -800 -592 0
v -800 -576 0
v -784 -576 0
v -800 -592 0
v -816 -592 0
v -816 -576 0
v -800 -576 0
v -816 -592 0
v -832 -592 0
v -832 -576 0
v -816 -576 0
v -832 -592 0
v -848 -592 0
v -848 -576 0
v -832 -576 0
v -848 -592 0
v -864 -592 0
v -864 -576 0
v -848 -576 0
v -864 -592 0
v -880 -592 0
v -880 -576 0
v -864 -576 0
v -880 -592 0
v -896 -592 0
v -896 -576 0
v -880 -576 0
v -896 -592 0
v -912 -592 0
v -912 -576 0
v -896 -576 0
v -912 -592 0
v -928 -592 0
v -928 -576 0
v -912 -576 0
v -928 -592 0
v -944 -592 0
v -944 -576 0
v -928 -576 0
v -944 -592 0
v -960 -592 0
v -960 -576 0
v -944 -576 0
v -960 -592 0
v -976 -592 0
v -976 -576 0
v -960 -576 0
v -1008 -592 0
v -1024 -592 0
v -1024 -576 0
v -1008 -576 0
v -1008 -624 0
v -1024 -624 0
v -1024 -608 0
v -1008 -608 0

# Texture cooridinates (Count = 39)
vt 0.03125 0.9375
vt 0.0625 0.9375
vt 0.0625 1
vt 0.03125 1
vt 0.09375 0.9375
vt 0.09375 1
vt 0.0625 0.75
vt 0.09375 0.75
vt 0.09375 0.8125
vt 0.0625 0.8125
vt 0 0.75
vt 0.03125 0.75
vt 0.03125 0.8125
vt 0 0.8125
vt 0.125 0.75
vt 0.125 0.8125
vt 0.4375 0.875
vt 0.46875 0.875
vt 0.46875 0.9375
vt 0.4375 0.9375
vt 0.40625 0.6875
vt 0.4375 0.6875
vt 0.4375 0.75
vt 0.40625 0.75
vt 0.46875 0.6875
vt 0.46875 0.75
vt 0 0.9375
vt 0 1
vt 0.125 0.9375
vt 0.125 1
vt 0.09375 0.875
vt 0.125 0.875
vt 0.03125 0.875
vt 0 0.875
vt 0.0625 0.875
vt 0.25 0.9375
vt 0.28125 0.9375
vt 0.28125 1
vt 0.25 1

# Normal
vn 0 0 -1

# Mesh description
g Strong-Winds_mesh_0006

# Faces
f 1/1/1 2/2/1 3/3/1 4/4/1
f 5/2/1 6/5/1 7/6/1 8/3/1
f 9/1/1 10/2/1 11/3/1 12/4/1
f 13/2/1 14/5/1 15/6/1 16/3/1
f 17/1/1 18/2/1 19/3/1 20/4/1
f 21/1/1 22/2/1 23/3/1 24/4/1
f 25/1/1 26/2/1 27/3/1 28/4/1
f 29/1/1 30/2/1 31/3/1 32/4/1
f 33/1/1 34/2/1 35/3/1 36/4/1
f 37/1/1 38/2/1 39/3/1 40/4/1
f 41/1/1 42/2/1 43/3/1 44/4/1
f 45/1/1 46/2/1 47/3/1 48/4/1
f 49/1/1 50/2/1 51/3/1 52/4/1
f 53/1/1 54/2/1 55/3/1 56/4/1
f 57/1/1 58/2/1 59/3/1 60/4/1
f 61/2/1 62/5/1 63/6/1 64/3/1
f 65/1/1 66/2/1 67/3/1 68/4/1
f 69/2/1 70/5/1 71/6/1 72/3/1
f 73/2/1 74/5/1 75/6/1 76/3/1
f 77/7/1 78/8/1 79/9/1 80/10/1
f 81/7/1 82/8/1 83/9/1 84/10/1
f 85/7/1 86/8/1 87/9/1 88/10/1
f 89/7/1 90/8/1 91/9/1 92/10/1
f 93/7/1 94/8/1 95/9/1 96/10/1
f 97/7/1 98/8/1 99/9/1 100/10/1
f 101/7/1 102/8/1 103/9/1 104/10/1
f 105/7/1 106/8/1 107/9/1 108/10/1
f 109/7/1 110/8/1 111/9/1 112/10/1
f 113/7/1 114/8/1 115/9/1 116/10/1
f 117/7/1 118/8/1 119/9/1 120/10/1
f 121/7/1 122/8/1 123/9/1 124/10/1
f 125/11/1 126/12/1 127/13/1 128/14/1
f 129/12/1 130/7/1 131/10/1 132/13/1
f 133/7/1 134/8/1 135/9/1 136/10/1
f 137/8/1 138/15/1 139/16/1 140/9/1
f 141/17/1 142/18/1 143/19/1 144/20/1
f 145/7/1 146/8/1 147/9/1 148/10/1
f 149/8/1 150/15/1 151/16/1 152/9/1
f 153/8/1 154/15/1 155/16/1 156/9/1
f 157/21/1 158/22/1 159/23/1 160/24/1
f 161/21/1 162/22/1 163/23/1 164/24/1
f 165/21/1 166/22/1 167/23/1 168/24/1
f 169/21/1 170/22/1 171/23/1 172/24/1
f 173/21/1 174/22/1 175/23/1 176/24/1
f 177/21/1 178/22/1 179/23/1 180/24/1
f 181/21/1 182/22/1 183/23/1 184/24/1
f 185/21/1 186/22/1 187/23/1 188/24/1
f 189/21/1 190/22/1 191/23/1 192/24/1
f 193/21/1 194/22/1 195/23/1 196/24/1
f 197/21/1 198/22/1 199/23/1 200/24/1
f 201/21/1 202/22/1 203/23/1 204/24/1
f 205/21/1 206/22/1 207/23/1 208/24/1
f 209/21/1 210/22/1 211/23/1 212/24/1
f 213/21/1 214/22/1 215/23/1 216/24/1
f 217/22/1 218/25/1 219/26/1 220/23/1
f 221/27/1 222/1/1 223/4/1 224/28/1
f 225/1/1 226/2/1 227/3/1 228/4/1
f 229/2/1 230/5/1 231/6/1 232/3/1
f 233/1/1 234/2/1 235/3/1 236/4/1
f 237/1/1 238/2/1 239/3/1 240/4/1
f 241/2/1 242/5/1 243/6/1 244/3/1
f 245/2/1 246/5/1 247/6/1 248/3/1
f 249/1/1 250/2/1 251/3/1 252/4/1
f 253/2/1 254/5/1 255/6/1 256/3/1
f 257/1/1 258/2/1 259/3/1 260/4/1
f 261/2/1 262/5/1 263/6/1 264/3/1
f 265/1/1 266/2/1 267/3/1 268/4/1
f 269/2/1 270/5/1 271/6/1 272/3/1
f 273/1/1 274/2/1 275/3/1 276/4/1
f 277/2/1 278/5/1 279/6/1 280/3/1
f 281/5/1 282/29/1 283/30/1 284/6/1
f 285/31/1 286/32/1 287/29/1 288/5/1
f 289/14/1 290/13/1 291/33/1 292/34/1
f 293/13/1 294/10/1 295/35/1 296/33/1
f 297/10/1 298/9/1 299/31/1 300/35/1
f 301/9/1 302/16/1 303/32/1 304/31/1
f 305/9/1 306/16/1 307/32/1 308/31/1
f 309/9/1 310/16/1 311/32/1 312/31/1
f 313/9/1 314/16/1 315/32/1 316/31/1
f 317/9/1 318/16/1 319/32/1 320/31/1
f 321/9/1 322/16/1 323/32/1 324/31/1
f 325/9/1 326/16/1 327/32/1 328/31/1
f 329/9/1 330/16/1 331/32/1 332/31/1
f 333/9/1 334/16/1 335/32/1 336/31/1
f 337/14/1 338/13/1 339/33/1 340/34/1
f 341/13/1 342/10/1 343/35/1 344/33/1
f 345/10/1 346/9/1 347/31/1 348/35/1
f 349/9/1 350/16/1 351/32/1 352/31/1
f 353/9/1 354/16/1 355/32/1 356/31/1
f 357/11/1 358/12/1 359/13/1 360/14/1
f 361/12/1 362/7/1 363/10/1 364/13/1
f 365/7/1 366/8/1 367/9/1 368/10/1
f 369/8/1 370/15/1 371/16/1 372/9/1
f 373/8/1 374/15/1 375/16/1 376/9/1
f 377/8/1 378/15/1 379/16/1 380/9/1
f 381/8/1 382/15/1 383/16/1 384/9/1
f 385/8/1 386/15/1 387/16/1 388/9/1
f 389/8/1 390/15/1 391/16/1 392/9/1
f 393/8/1 394/15/1 395/16/1 396/9/1
f 397/8/1 398/15/1 399/16/1 400/9/1
f 401/8/1 402/15/1 403/16/1 404/9/1
f 405/11/1 406/12/1 407/13/1 408/14/1
f 409/12/1 410/7/1 411/10/1 412/13/1
f 413/7/1 414/8/1 415/9/1 416/10/1
f 417/8/1 418/15/1 419/16/1 420/9/1
f 421/8/1 422/15/1 423/16/1 424/9/1
f 425/36/1 426/37/1 427/38/1 428/39/1

